<?xml version="1.0" encoding="utf-8"?>
<!-- Generator: Adobe Illustrator 25.1.0, SVG Export Plug-In . SVG Version: 6.00 Build 0)  -->
<svg version="1.1" id="Layer_1" xmlns="http://www.w3.org/2000/svg" xmlns:xlink="http://www.w3.org/1999/xlink" x="0px" y="0px"
	 viewBox="0 0 1024 1024" style="enable-background:new 0 0 1024 1024;" xml:space="preserve">
<style type="text/css">
	.st0{fill:#FFFFFF;}
</style>
<g>
	<g>
		<path class="st0" d="M1008,512c0,67-13.1,131.9-39,193.1c-25,59.1-60.7,112.1-106.3,157.7S764.2,944.1,705.1,969
			c-61.2,25.9-126.1,39-193.1,39s-131.9-13.1-193.1-39c-59.1-25-112.1-60.7-157.7-106.3S79.9,764.2,55,705.1
			C29.1,643.9,16,579,16,512c0-7.9,0.2-15.7,0.6-23.5c9.3-13,20-25,32.6-36c7.6-6.6,15.5-12.5,23.5-17.6
			c41.8-26.5,88.8-32.1,139.2-14.5c36.4,12.7,58.3,43,55.9,73.1c-1.6,19.8-9.7,35.8-27.5,45.6c-7.8,4.3-8.2,6.9-2.2,13.1
			c8.2,8.1,17.4,15.3,28.4,17.7c73.7,16.8,144.3-3.1,156.9-97.9c2.3-17.3,4.5-34.6,0.5-52.2c-5.5-24.1-18.9-41.1-42.3-49
			c-27.2-9.1-54.4-11.9-80.1,5.1c-10.3-24.8-1.4-49.9,23.7-67c24.9-16.6,52.6-23,82.1-22.3c9.1,0.3,16.9-0.3,23.5-7.7
			c6.2-6.9,15.3-7.3,24.2-8.4c27.1-3.1,53.6-0.1,79.3,8.2c33.1,10.8,54.5,33.2,62.5,68c6.2,27.3,7.7,55.1,8.9,82.8
			c0.9,22.7,3.4,45.2,9.5,67.1c23.7,85.1,108.2,93.3,161.7,64.3c4.5-2.4,7.9-6.6,11.6-10.1c4.6-4.2,3.7-6.9-1.5-10.7
			c-40.6-29.9-39.1-78.6,2.7-107.3c44.6-30.5,110.3-29.7,161.4,0.8c5.6,3.3,11,7,16.2,11.1c16,12.4,29,26.8,40,42.5
			C1007.8,495.6,1008,503.8,1008,512z"/>
	</g>
</g>
</svg>
