<?xml version="1.0" encoding="utf-8"?>
<!-- Generator: Adobe Illustrator 25.1.0, SVG Export Plug-In . SVG Version: 6.00 Build 0)  -->
<svg version="1.1" id="Layer_1" xmlns="http://www.w3.org/2000/svg" xmlns:xlink="http://www.w3.org/1999/xlink" x="0px" y="0px"
	 viewBox="0 0 1024 1024" style="enable-background:new 0 0 1024 1024;" xml:space="preserve">
<style type="text/css">
	.st0{fill:#FFFFFF;}
</style>
<g>
	<path class="st0" d="M512,1008c-67,0-131.9-13.1-193.1-39c-59.1-25-112.1-60.7-157.7-106.3S79.9,764.2,55,705.1
		C29.1,643.9,16,579,16,512s13.1-131.9,39-193.1c25-59.1,60.7-112.1,106.3-157.7S259.8,79.9,318.9,55C380.1,29.1,445,16,512,16
		s131.9,13.1,193.1,39c59.1,25,112.1,60.7,157.7,106.3s81.3,98.6,106.3,157.7c25.9,61.2,39,126.1,39,193.1s-13.1,131.9-39,193.1
		c-25,59.1-60.7,112.1-106.3,157.7S764.2,944.1,705.1,969C643.9,994.9,579,1008,512,1008z M512,66C266.1,66,66,266.1,66,512
		s200.1,446,446,446s446-200.1,446-446S757.9,66,512,66z"/>
</g>
<path class="st0" d="M820.6,773.6C742.3,854,632.9,923,512,923s-230.3-69-308.6-149.4C250.1,648.5,370.6,578.4,512,578.4
	S773.9,648.5,820.6,773.6z"/>
<circle class="st0" cx="512" cy="371.1" r="158.8"/>
</svg>
