<svg xmlns="http://www.w3.org/2000/svg" xmlns:xlink="http://www.w3.org/1999/xlink" id="Layer_1" x="0" y="0" version="1.1" viewBox="0 0 1024 188" xml:space="preserve" style="enable-background:new 0 0 1024 188"><style type="text/css">.st0{fill:#00aded}</style><g><path d="M1008.3,50.5c-4.5-7.4-10.7-12.8-18.4-16.3c-9.6-4.3-19.6-5.1-29.6-1.8c-13.1,4.4-16.1,19.4-8.1,28.4 c4.9,5.5,10.9,9.5,17,13.5c8.9,5.8,18.2,11.1,26.3,18.2c7.4,6.5,13.5,13.9,15.6,23.7c3.9,17.4-1.6,31.9-15.4,43 c-10.8,8.7-23.7,12.6-37.3,13.8c-17.1,1.5-33.6-1.8-49.6-7.7c-1.1-0.4-1.8-0.8-1.7-2.1c0.8-12.2,1.6-24.5,2.5-37.5 c2.3,3.9,4.2,7.1,6.6,10.1c11.7,15,32.6,21.5,50.2,15.6c6.4-2.2,11.6-5.9,14-12.5c3.1-8.8,0.6-16.2-5.9-22.6 c-5.3-5.2-11.7-8.8-18-12.7C947,97.9,937.9,92,930,84.3c-16.3-15.9-14.7-38.2-6.2-52c4.8-7.9,12.1-12.9,20.7-16.2 c12.6-4.8,25.7-5.5,39-4.8c7.8,0.5,15.5,1.8,23.2,2.4c0.2,0,0.3,0.1,0.5,0.1c1.8,0.5,4.4-0.9,5.3,0.8c0.7,1.4-0.2,3.7-0.4,5.6 c-1,9.3-2,18.6-3,27.9C1008.9,48.9,1009.1,49.7,1008.3,50.5z" class="st0"/><path d="M545.1,53.6c-3.4-5.9-7.2-10.7-12.2-14.6c-18.7-14.6-45-10.2-58.4,9.6c-7,10.4-10.6,21.9-12.3,34.2 c-1.6,11.5-1.7,23,1.5,34.3c4.3,15.1,13.2,26.2,28.8,30.6c13,3.7,25.6,1.7,37.8-3.8c7-3.2,13.5-7.3,20.3-11.8 c-1.2,5-3.3,9.3-5.6,13.4c-8.9,15.8-22.6,24.5-40.4,27.1c-12.9,1.8-25.5,1-37.5-4.4c-15.1-6.8-25.3-18.3-31.7-33.4 c-6.3-14.9-7.2-30.4-5.4-46.3c1.6-14.2,5.3-27.7,12.6-40.2c11.7-20,29.2-31.8,51.9-35.8c12.8-2.3,25.6-1.5,38.4,0.2 c4.9,0.6,9.7,1.3,14.6,1.3c1.4,0,2,0.2,1.8,1.9c-1.2,11.7-2.4,23.5-3.6,35.2C545.6,51.7,545.4,52.4,545.1,53.6z" class="st0"/><path d="M847.2,80.9c9.7-15.4,19.3-30.3,28.6-45.4c4.1-6.6,4.9-13.9,1.8-21.4c13.6,0,27,0,40.3,0 c-13.3,13.3-23.2,29-33.5,44.5c-9.7,14.6-19.2,29.4-27.3,45c-2.1,4.1-2.5,8.5-3.1,12.9c-1.7,13.1-2.3,26.3-1.7,39.5 c0.2,4.9,1.1,9.7,3.9,14.2c-13.9,0-27.7,0-41.5,0c5.8-11.1,6.7-23.3,8-35.4c0.8-7.6,1-15.3,1.6-23c0.3-3.6-0.4-7.1-1.5-10.5 c-8.6-26.7-19.9-52.2-35.1-75.8c-2.6-4.1-5.6-8-9.9-11.2c4.7-1,9.3-0.9,13.8-1.1c5.8-0.3,11.5-0.7,17.3-0.4 c5.3,0.3,9.1,2.8,11.6,7.4c5,8.9,8.7,18.5,12.8,27.8c4.5,10.4,9.1,20.8,12.9,31.5C846.5,79.7,846.8,80.1,847.2,80.9z" class="st0"/><path d="M778.7,147c-9.6-25.3-15.9-51.6-23.1-77.7c-4.9-17.8-9.8-35.7-14.6-53.5c-0.4-1.4-0.9-1.8-2.3-1.8 c-10.1,0-20.1,0.1-30.2,0c-2,0-1.9,0.6-1.3,2.1c1.5,3.7,1.7,7.4,0.1,11.2c-0.9,2.2-1.6,4.4-2.5,6.6 c-15.4,35.2-31.7,69.9-49.3,104.1c-1.6,3-3.6,5.2-6.6,6.7c-3.7,2-7.6,3.6-11.8,4.3c-9.5,1.7-19,1.4-28.5,1.4 c-7.5,0-9.7-2.2-9.7-9.7c0-0.6,0.1-1.2,0.1-1.8c0.3-11.6,1.4-23.2,2.4-34.8c1.7-20,2.7-40.1,4.9-60.1c1.1-10.2,1.7-20.7,7-30 c-13.9,0-27.7,0-41.8,0c3.1,5.1,3.4,10.7,3.6,16.1c0.5,12.8-0.3,25.5-1.1,38.2c-1.5,22.5-2.7,45-5.1,67.4 c-1.3,11.7-1.9,23.5-7.8,34.4c1.1,0,2.1,0,3,0c33.6,0,67.1,0,100.7,0c1.7,0,3.3-0.1,5,0c1.3,0.1,1.6-0.3,1.2-1.6 c-1.2-4.6-0.6-9.2,0.8-13.7c3.1-10,8-19.1,12.2-28.6c0.6-1.3,1.6-1.1,2.6-1.1c7.2,0,14.4,0.1,21.5-0.1c10.2-0.2,20.5-0.4,30.3-3.9 c1.7-0.6,1.5,0.6,1.8,1.4c2.3,8,4.5,15.9,6.9,23.9c2.1,6.7,3.9,13.6,7.6,19.7c2,3.3,4.8,4.9,8.6,5.2c9.6,0.6,19-0.3,29.1-1.2 C785.5,163.6,781.9,155.4,778.7,147z M732.8,105.2c-12.7-0.2-25.3-0.1-38.5-0.1c8.4-18.1,16.6-36,25.1-54.4 c3.1,10.5,5.9,20.2,8.7,30c2.1,7.4,4.2,14.7,6.4,22.1C735.2,104.8,735.1,105.2,732.8,105.2z" class="st0"/><path d="M122.6,95.5C114,87,103,84.1,90.8,82.5c5.3-1.8,10-3.5,14.4-6c13.7-8,22.6-18.9,20.8-35.9 c-1-9.5-5.4-16.8-14.1-21.3c-6.8-3.6-14.3-4.8-21.8-5c-12.7-0.3-25.4-0.2-38.1-0.2c-10,0-20.1,0-30.4,0c3.5,5.7,3.8,11.8,4,17.9 c0.4,12.6-0.4,25.2-1.2,37.7c-1.5,22.5-2.7,45-5.1,67.4c-1.2,11.4-1.7,23-8,33.4c0.4,0,0.7,0,1.1,0c18.3,0,36.6,0.1,54.9,0 c12.4-0.1,24.6-2.1,36-7.4c14.8-6.8,25.8-17.2,28.8-33.9C134.4,116.5,132.1,104.8,122.6,95.5z M53.5,69.6 c0.7-11.3,1.8-22.6,3.2-33.9c0.2-1.8,0.9-2.7,2.9-2.7c7.3-0.3,14.5-0.4,21.6,1.4C94.3,37.8,99.5,51,92.1,62.3 c-4.5,6.8-11.3,9.8-18.9,11.7c-4.3,1.1-8.8,1.5-11.3,1.6C53.2,76.3,53.1,76.3,53.5,69.6z M81,148.4c-8,2.7-16.2,3.4-24.6,2.1 c-0.9-0.1-1.9-0.4-2.8-0.7c-4.3-1.3-5-2.3-4.7-6.8c0.1-1.7,0.2-3.3,0.3-5c0.5-13.8,1.6-27.5,2.7-41.3c0.1-0.9-0.2-2,1.3-2 c8.8,0.1,17.7-0.4,26.3,2c13.3,3.7,20.3,11.8,20.7,24.6C100.6,133.9,93.3,144.2,81,148.4z" class="st0"/><path d="M427.7,167.7c-4.9-5.5-9.3-11.4-13.8-17.2c-14.7-19-28.7-38.5-43.9-57.3c2.5-1,5-1.9,7.5-3 c20.3-8.7,30.4-23.8,29.8-44.5c-0.4-13.8-7.1-23.4-19.6-28.1c-4.7-1.8-9.6-2.6-14.6-3.1c-9.6-0.9-19.2-0.4-28.9-0.5 c-12.9-0.1-25.9,0-39.2,0c3.5,5.2,3.7,10.6,3.9,16c0.4,9.2,0.1,18.3-0.4,27.5c-1.6,27-3.1,54.1-6,81c-1.2,10.8-1.7,21.9-7.8,31.8 c13.9,0,27.6,0,41.7,0c-1.8-2.3-2.6-4.8-3.1-7.4c-0.8-4.7-1.1-9.4-1-14.1c0.3-15.3,1.2-30.5,2.3-45.8c0.2-2.4,1.1-2.6,3.1-2.2 c4.5,1,6.8,4.4,9.2,7.7c14.9,20.5,29.7,41.1,44.5,61.6c3,4.1,6.9,6.2,11.9,6.5c11.4,0.7,22.7-0.2,34.8-1.1 C433.7,173.5,430.5,170.8,427.7,167.7z M351.4,81.1c-2.7,0.5-5.4,0.7-8.1,0.7c-8.4-0.4-7.1,0.9-6.5-7.2c0.9-12.5,1.9-25.1,3.3-37.5 c0.3-2.7,1-4,4.1-3.9c6.2,0.2,12.4-0.5,18.5,1.2c8.4,2.4,13.4,8.6,13.5,17.4C376.3,67,366.6,78.5,351.4,81.1z" class="st0"/><path d="M273.1,152c-7.3-17.1-12.1-34.9-17-52.7c-7.7-27.7-15.1-55.5-22.6-83.3c-0.4-1.5-1-1.9-2.4-1.9 c-10,0.1-20,0-29.9,0.1c-0.6,0-1.4-0.3-2.1,0.6c2.6,4.9,1.9,9.9-0.2,15c-3.2,7.6-6.3,15.1-9.7,22.6c-9.7,21.2-19.5,42.3-29.8,63.3 c-7.4,15.2-15.1,30.3-24.6,44.4c-2.4,3.6-5.2,6.9-8.2,10.5c12.2,0,23.9,0,35.6,0c1.5,0,1.5-0.6,1.2-1.7c-1.3-5.5-0.3-10.7,1.5-15.9 c3.2-9,7.6-17.4,11.5-26.1c0.6-1.4,1.7-1.2,2.8-1.2c7.3,0,14.5,0,21.8-0.1c10.1-0.2,20.3-0.4,30-3.9c1.6-0.6,1.4,0.6,1.5,1.3 c1.9,6.3,3.6,12.6,5.5,18.8c2.2,7.3,4.3,14.6,7.3,21.5c2.3,5.1,5.6,8.6,11.9,8.7c9.1,0.1,18.1-0.4,27.7-1.4 C279.2,165,276,158.6,273.1,152z M225.7,105.2c-12.4,0-24.8-0.1-37.2,0c-2.1,0-1.6-0.7-1.1-2c5.8-12.3,11.5-24.7,17.2-37 c2.3-5,4.6-9.9,7.2-15.5c5.2,18,10.2,35.2,15.2,52.4C227.7,104.8,227.4,105.3,225.7,105.2z" class="st0"/></g></svg>