<?xml version="1.0" encoding="utf-8"?>
<!-- Generator: Adobe Illustrator 25.1.0, SVG Export Plug-In . SVG Version: 6.00 Build 0)  -->
<svg version="1.1" id="Layer_1" xmlns="http://www.w3.org/2000/svg" xmlns:xlink="http://www.w3.org/1999/xlink" x="0px" y="0px"
	 viewBox="0 0 1024 202.4" style="enable-background:new 0 0 1024 202.4;" xml:space="preserve">
<style type="text/css">
	.st0{fill:#00ADED;}
</style>
<g>
	<g>
		<path class="st0" d="M52.6,123.6c-2.1,3.7-4.2,7.3-6.9,10.4c-1.6,2-3.4,3.8-5,5.8c-1.1,1.3-1.8,1.2-2.7-0.2
			c-6.5-10.5-11.9-21.4-14.2-33.6c-2.7-14.2-3.3-28.4,0.5-42.6c2-7.6,5-14.8,11.1-20.1c6.6-5.7,14.2-7.3,22.5-4.4
			c5,1.8,8.1,5.9,7.7,10.1c-0.2,2.7-1.4,5-3.8,6.3c-1.1,0.6-1.1,1-0.3,1.8c1.1,1.1,2.4,2.1,3.9,2.5c10.2,2.3,20-0.4,21.7-13.5
			c0.3-2.4,0.6-4.8,0.1-7.2c-0.8-3.3-2.6-5.7-5.9-6.8c-3.8-1.3-7.5-1.6-11.1,0.7c-1.4-3.4-0.2-6.9,3.3-9.3c3.4-2.3,7.3-3.2,11.3-3.1
			c1.3,0,2.3,0,3.3-1.1c0.9-1,2.1-1,3.3-1.2c3.7-0.4,7.4,0,11,1.1c4.6,1.5,7.6,4.6,8.7,9.4c0.9,3.8,1.1,7.6,1.2,11.5
			c0.1,3.1,0.5,6.3,1.3,9.3c3.3,11.8,15,12.9,22.4,8.9c0.6-0.3,1.1-0.9,1.6-1.4c0.6-0.6,0.5-0.9-0.2-1.5c-5.6-4.1-5.4-10.9,0.4-14.8
			c6.9-4.7,17.3-4,24.6,1.6c5.5,4.3,8.5,10.2,10.8,16.6c4.1,11.2,4.3,22.8,3.6,34.6c-0.9,16.8-6.9,31.8-15.8,45.9
			c-0.9,1.4-1.5,1.8-2.9,0.4c-4.6-4.8-8.6-10-11.8-16.1c-1.4,1-1.6,2.3-1.4,3.7c0.9,6.8,3.9,12.9,7.1,18.9c0.1,0.3,0.3,0.5,0.4,0.7
			c0.6,1.2,1.3,2.4,0,3.5c-1.2,1-2.3,0.2-3.3-0.4c-5.2-3.1-8.9-7.7-12.5-12.4c-3.7-5-6.9-10.3-9.6-15.9c-0.2-0.5-0.3-1.3-1-1.2
			c-0.6,0.1-0.8,0.9-0.8,1.4c-0.4,2.8,0.6,5.4,1.4,7.9c3.3,10.3,8.9,19.2,15.6,27.5c1,1.3,1,2-0.3,3.1
			c-11.8,10.3-25.2,17.7-39.8,23.2c-2,0.7-3.8,0.7-5.8,0c-14.2-5.4-27.4-12.7-39-22.5c-2.4-2-2.4-2-0.5-4.4
			c6.5-8.3,12.1-17.1,15.2-27.3c0.7-2.4,1.6-4.7,1.3-7.3c-0.1-0.6-0.1-1.5-0.8-1.6c-0.9-0.2-0.8,0.8-1.1,1.3
			c-4.4,8.6-9.5,16.7-16.3,23.6c-1.8,1.8-3.6,3.4-5.9,4.6c-1,0.5-2.2,1.4-3.3,0.3c-1.1-1.1-0.5-2.3,0.1-3.3
			c3.1-5.6,5.8-11.4,7.2-17.7C54,127.5,54.2,125.5,52.6,123.6z"/>
	</g>
	<g>
		<path class="st0" d="M998.8,64.7c-3.6-5.9-8.6-10.3-14.9-13.1c-7.8-3.5-15.8-4.1-23.9-1.4c-10.5,3.5-12.9,15.7-6.6,22.9
			c3.9,4.5,8.8,7.6,13.7,10.8c7.2,4.7,14.7,9,21.2,14.7c5.9,5.2,10.9,11.2,12.6,19.1c3.1,14.1-1.3,25.7-12.4,34.7
			c-8.7,7-19.1,10.1-30.1,11.1c-13.8,1.2-27.1-1.5-40-6.2c-0.9-0.3-1.5-0.6-1.4-1.7c0.7-9.9,1.3-19.7,2-30.2
			c1.8,3.1,3.4,5.7,5.3,8.2c9.4,12,26.3,17.3,40.4,12.5c5.2-1.7,9.4-4.7,11.2-10c2.5-7.1,0.5-13.1-4.8-18.2
			c-4.3-4.2-9.4-7.1-14.5-10.2c-7.5-4.6-14.9-9.4-21.2-15.6c-13.2-12.8-11.8-30.8-5-41.9c3.9-6.3,9.8-10.4,16.7-13.1
			c10.1-3.9,20.7-4.5,31.4-3.8c6.3,0.4,12.5,1.4,18.7,1.9c0.1,0,0.3,0,0.4,0.1c1.4,0.4,3.6-0.7,4.3,0.7c0.6,1.1-0.2,3-0.3,4.5
			c-0.8,7.5-1.6,15-2.4,22.4C999.3,63.4,999.4,64.1,998.8,64.7z"/>
		<path class="st0" d="M625.6,67.2c-2.8-4.7-5.8-8.6-9.8-11.7c-15.1-11.7-36.3-8.2-47.1,7.8c-5.7,8.3-8.5,17.7-9.9,27.5
			c-1.3,9.3-1.4,18.5,1.2,27.6c3.5,12.1,10.6,21.1,23.2,24.7c10.5,3,20.6,1.4,30.5-3c5.7-2.5,10.9-5.9,16.3-9.5
			c-1,4-2.6,7.5-4.5,10.8c-7.2,12.7-18.2,19.8-32.6,21.8c-10.4,1.5-20.6,0.8-30.2-3.6c-12.2-5.5-20.4-14.8-25.5-26.9
			c-5.1-12-5.8-24.5-4.4-37.3c1.3-11.4,4.3-22.4,10.1-32.4c9.4-16.1,23.5-25.6,41.8-28.9c10.3-1.9,20.6-1.2,30.9,0.2
			c3.9,0.5,7.8,1.1,11.8,1c1.1,0,1.6,0.2,1.5,1.5c-1,9.4-1.9,18.9-2.9,28.3C626,65.7,625.8,66.2,625.6,67.2z"/>
		<path class="st0" d="M869,89.2c7.8-12.4,15.5-24.4,23-36.5c3.3-5.4,3.9-11.2,1.5-17.3c10.9,0,21.7,0,32.5,0
			c-10.7,10.7-18.7,23.4-27,35.8c-7.8,11.8-15.5,23.7-22,36.2c-1.7,3.3-2,6.9-2.5,10.4c-1.4,10.6-1.9,21.2-1.4,31.8
			c0.2,4,0.9,7.8,3.1,11.5c-11.2,0-22.3,0-33.4,0c4.6-8.9,5.4-18.8,6.5-28.5c0.7-6.1,0.8-12.3,1.3-18.5c0.2-2.9-0.3-5.7-1.2-8.5
			c-7-21.5-16-42-28.3-61.1c-2.1-3.3-4.5-6.5-7.9-9c3.8-0.8,7.5-0.7,11.1-0.9c4.6-0.2,9.3-0.6,13.9-0.3c4.3,0.2,7.3,2.3,9.4,5.9
			c4,7.2,7,14.9,10.3,22.4c3.7,8.4,7.3,16.7,10.4,25.4C868.5,88.3,868.7,88.6,869,89.2z"/>
		<path class="st0" d="M813.8,142.5c-7.7-20.4-12.8-41.6-18.6-62.6c-4-14.4-7.9-28.7-11.7-43.1c-0.3-1.1-0.7-1.4-1.8-1.4
			c-8.1,0-16.2,0.1-24.3,0c-1.6,0-1.5,0.5-1.1,1.7c1.2,3,1.4,6,0.1,9c-0.7,1.7-1.3,3.6-2,5.3c-12.4,28.3-25.5,56.3-39.7,83.9
			c-1.3,2.4-2.9,4.2-5.3,5.4c-3,1.6-6.1,2.9-9.5,3.5c-7.6,1.3-15.3,1.1-23,1.2c-6,0-7.8-1.8-7.8-7.8c0-0.5,0-1,0.1-1.5
			c0.3-9.4,1.1-18.7,1.9-28c1.4-16.1,2.1-32.3,3.9-48.4c0.9-8.2,1.4-16.7,5.7-24.2c-11.2,0-22.3,0-33.7,0c2.5,4.1,2.7,8.6,2.9,13
			c0.4,10.3-0.2,20.6-0.9,30.8c-1.2,18.1-2.2,36.2-4.1,54.3c-1,9.4-1.5,18.9-6.3,27.7c0.9,0,1.7,0,2.4,0c27,0,54.1,0,81.1,0
			c1.3,0,2.7,0,4,0c1.1,0.1,1.3-0.2,1-1.3c-1-3.7-0.5-7.4,0.6-11c2.5-8,6.4-15.4,9.9-23c0.5-1,1.3-0.9,2.1-0.9c5.8,0,11.6,0,17.4,0
			c8.2-0.1,16.5-0.3,24.4-3.1c1.3-0.5,1.2,0.5,1.4,1.1c1.9,6.4,3.6,12.8,5.6,19.2c1.7,5.4,3.2,11,6.1,15.9c1.6,2.6,3.9,4,6.9,4.2
			c7.7,0.4,15.3-0.3,23.4-0.9C819.3,155.8,816.4,149.2,813.8,142.5z M776.8,108.8c-10.2-0.1-20.4-0.1-31-0.1
			c6.7-14.6,13.4-29,20.2-43.8c2.5,8.4,4.8,16.3,7,24.2c1.7,5.9,3.4,11.9,5.2,17.8C778.8,108.4,778.7,108.8,776.8,108.8z"/>
		<path class="st0" d="M285.2,100.9c-6.9-6.8-15.8-9.1-25.6-10.4c4.2-1.5,8.1-2.8,11.6-4.9c11.1-6.5,18.2-15.2,16.8-28.9
			c-0.8-7.7-4.4-13.5-11.3-17.2c-5.5-2.9-11.5-3.9-17.6-4c-10.2-0.2-20.4-0.1-30.7-0.2c-8.1,0-16.2,0-24.5,0c2.8,4.6,3,9.5,3.2,14.4
			c0.3,10.1-0.3,20.3-1,30.4c-1.2,18.1-2.1,36.2-4.1,54.3c-1,9.2-1.4,18.5-6.5,26.9c0.3,0,0.6,0,0.9,0c14.8,0,29.5,0.1,44.3,0
			c10-0.1,19.8-1.7,29-5.9c11.9-5.5,20.8-13.9,23.2-27.3C294.7,117.9,292.8,108.5,285.2,100.9z M229.5,80.1
			c0.5-9.1,1.5-18.2,2.6-27.3c0.2-1.5,0.7-2.1,2.3-2.2c5.9-0.2,11.7-0.3,17.4,1.2c10.5,2.7,14.7,13.3,8.7,22.4
			c-3.6,5.5-9.1,7.9-15.2,9.5c-3.5,0.9-7.1,1.2-9.1,1.3C229.3,85.5,229.2,85.5,229.5,80.1z M251.7,143.6c-6.5,2.2-13.1,2.7-19.8,1.7
			c-0.8-0.1-1.5-0.3-2.3-0.5c-3.5-1.1-4-1.8-3.8-5.4c0.1-1.3,0.1-2.7,0.2-4c0.4-11.1,1.3-22.2,2.2-33.3c0.1-0.7-0.2-1.6,1.1-1.6
			c7.1,0.1,14.2-0.3,21.2,1.6c10.7,2.9,16.4,9.5,16.7,19.8C267.5,131.9,261.6,140.2,251.7,143.6z"/>
		<path class="st0" d="M531.1,159.1c-3.9-4.4-7.5-9.1-11.1-13.8c-11.9-15.3-23.1-31-35.3-46.2c2-0.8,4.1-1.6,6-2.4
			c16.3-7,24.5-19.2,24-35.9c-0.3-11.1-5.7-18.8-15.8-22.7c-3.8-1.4-7.7-2.1-11.7-2.5c-7.7-0.7-15.5-0.3-23.3-0.4
			c-10.4-0.1-20.8,0-31.6,0c2.8,4.2,3,8.6,3.2,12.9c0.3,7.4,0.1,14.8-0.4,22.2c-1.3,21.8-2.5,43.6-4.8,65.3
			c-0.9,8.7-1.4,17.7-6.3,25.6c11.2,0,22.2,0,33.6,0c-1.4-1.9-2.1-3.9-2.5-5.9c-0.6-3.8-0.9-7.6-0.8-11.4c0.3-12.3,1-24.6,1.8-36.9
			c0.1-1.9,0.9-2.1,2.5-1.8c3.6,0.8,5.5,3.6,7.4,6.2c12,16.5,23.9,33.1,35.8,49.7c2.4,3.3,5.6,5,9.6,5.3c9.2,0.6,18.3-0.2,28-0.9
			C535.9,163.8,533.3,161.7,531.1,159.1z M469.5,89.4c-2.2,0.4-4.3,0.6-6.5,0.5c-6.8-0.3-5.7,0.7-5.3-5.8
			c0.7-10.1,1.5-20.2,2.7-30.2c0.2-2.2,0.8-3.2,3.3-3.1c5,0.2,10-0.4,14.9,1c6.8,1.9,10.8,6.9,10.9,14
			C489.6,78,481.8,87.3,469.5,89.4z"/>
		<path class="st0" d="M406.5,146.5c-5.9-13.7-9.7-28.2-13.7-42.5c-6.2-22.3-12.2-44.7-18.2-67.1c-0.3-1.2-0.8-1.6-2-1.5
			c-8,0-16.1,0-24.1,0c-0.5,0-1.1-0.2-1.7,0.5c2.1,4,1.6,8-0.1,12.1c-2.5,6.1-5.1,12.2-7.8,18.2c-7.8,17.1-15.7,34.1-24,51
			c-6,12.3-12.2,24.4-19.9,35.8c-2,2.9-4.2,5.5-6.6,8.5c9.8,0,19.3,0,28.7,0c1.2,0,1.2-0.5,1-1.4c-1.1-4.4-0.3-8.7,1.2-12.8
			c2.5-7.2,6.1-14.1,9.2-21c0.5-1.1,1.4-1,2.3-1c5.9,0,11.7,0,17.6-0.1c8.2-0.1,16.4-0.3,24.2-3.1c1.3-0.5,1.1,0.5,1.2,1
			c1.5,5.1,2.9,10.1,4.4,15.2c1.7,5.9,3.4,11.7,5.9,17.4c1.8,4.1,4.5,6.9,9.6,7c7.3,0.1,14.6-0.4,22.3-1.1
			C411.4,156.9,408.8,151.8,406.5,146.5z M368.3,108.8c-10,0-20-0.1-30,0c-1.7,0-1.3-0.6-0.9-1.6c4.6-9.9,9.3-19.9,13.9-29.8
			c1.9-4,3.7-8,5.8-12.5c4.2,14.5,8.2,28.4,12.3,42.2C369.8,108.5,369.6,108.8,368.3,108.8z"/>
	</g>
</g>
</svg>
