<?xml version="1.0" encoding="utf-8"?>
<!-- Generator: Adobe Illustrator 25.1.0, SVG Export Plug-In . SVG Version: 6.00 Build 0)  -->
<svg version="1.1" id="Layer_1" xmlns="http://www.w3.org/2000/svg" xmlns:xlink="http://www.w3.org/1999/xlink" x="0px" y="0px"
	 viewBox="0 0 1024 1024" style="enable-background:new 0 0 1024 1024;" xml:space="preserve">
<style type="text/css">
	.st0{fill:#FFFFFF;}
</style>
<g>
	<path class="st0" d="M264.6,626.3c-11.2,20-22.6,38.8-36.7,55.7c-8.8,10.5-18.2,20.5-26.9,31c-5.7,6.9-9.7,6.6-14.5-1
		c-34.9-55.8-63.5-114.5-75.9-179.6c-14.4-75.8-17.4-152,2.5-227.4c10.7-40.5,26.6-79.2,59.1-107.4c35-30.3,75.9-39.2,120.3-23.7
		c26.9,9.4,43.1,31.8,41.3,54c-1.2,14.6-7.2,26.5-20.3,33.7c-5.8,3.2-6.1,5.1-1.6,9.7c6.1,6,12.9,11.3,21,13.1
		c54.5,12.4,106.7-2.3,116-72.4c1.7-12.8,3.3-25.6,0.4-38.6c-4.1-17.8-14-30.4-31.3-36.2c-20.1-6.7-40.2-8.8-59.2,3.8
		c-7.6-18.3-1-36.9,17.5-49.5c18.4-12.3,38.9-17,60.7-16.5c6.7,0.2,12.5-0.2,17.4-5.7c4.6-5.1,11.3-5.4,17.9-6.2
		c20-2.3,39.6-0.1,58.6,6.1c24.5,8,40.3,24.5,46.2,50.3c4.6,20.2,5.7,40.7,6.6,61.2c0.7,16.8,2.5,33.4,7,49.6
		c17.5,62.9,80,69,119.5,47.5c3.3-1.8,5.8-4.9,8.6-7.5c3.4-3.1,2.7-5.1-1.1-7.9c-30-22.1-28.9-58.1,2-79.3
		c36.6-25,92.4-21.5,131.3,8.8c29.4,22.8,45.4,54.7,57.9,88.6c22,59.9,22.8,122,19.3,184.7c-4.9,89.9-37.1,170.1-84.3,245.4
		c-4.8,7.7-8.2,9.4-15.3,2.1c-24.8-25.6-45.9-53.7-62.8-85.8c-7.4,5.1-8.3,12.1-7.2,19.9c5,36.4,20.9,68.8,37.9,100.7
		c0.7,1.3,1.6,2.6,2.3,3.9c3.1,6.2,6.9,12.9,0.2,18.7c-6.2,5.3-12.4,1-17.8-2.2c-27.6-16.6-47.6-41.2-66.6-66.5
		c-19.9-26.5-36.9-54.9-51.5-84.7c-1.2-2.5-1.4-6.9-5.3-6.2c-3.2,0.6-4,4.5-4.5,7.5c-2.3,14.9,3,28.6,7.4,42.3
		c17.4,54.9,47.7,102.5,83.4,147c5.6,6.9,5.3,10.6-1.5,16.5c-63,55.2-134.6,95-212.6,124.3c-10.5,4-20.2,3.8-30.8-0.2
		c-76.1-28.7-146.1-67.6-208.2-120.4c-12.8-10.9-12.7-10.8-2.6-23.6c34.8-44.2,64.6-91.2,81.1-145.6c3.8-12.7,8.5-25.3,6.9-39
		c-0.4-3.4-0.4-7.8-4.2-8.7c-4.9-1.2-4.5,4.1-5.9,6.8c-23.5,46-50.6,89.4-87.1,126.3c-9.4,9.5-19.5,18.3-31.3,24.6
		c-5.4,2.9-11.7,7.3-17.8,1.4c-6-5.8-2.5-12,0.6-17.7c16.7-30,31.2-60.9,38.6-94.6C271.7,647,272.8,636.6,264.6,626.3z"/>
</g>
</svg>
