<?xml version="1.0" encoding="utf-8"?>
<!-- Generator: Adobe Illustrator 25.1.0, SVG Export Plug-In . SVG Version: 6.00 Build 0)  -->
<svg version="1.1" id="Layer_1" xmlns="http://www.w3.org/2000/svg" xmlns:xlink="http://www.w3.org/1999/xlink" x="0px" y="0px"
	 viewBox="0 0 1024 1024" style="enable-background:new 0 0 1024 1024;" xml:space="preserve">
<path d="M834.4,442.9l127-190.6c10.7-16.2,6.3-37.9-9.9-48.6c-5.7-3.8-12.4-5.8-19.3-5.8H581.6V92.9c0-19.4-15.7-35.1-35.1-35.1l0,0
	H91.7c-19.4,0-35.1,15.7-35.1,35.1v839.7c1.3,19.3,18,34,37.3,32.7c17.5-1.2,31.5-15.1,32.7-32.7V547.8h210v105.1
	c0,19.3,15.6,34.9,34.9,34.9c0.1,0,0.1,0,0.2,0h560c19.4-0.1,35-15.8,35-35.2c0-6.8-2-13.5-5.8-19.3L834.4,442.9z M127.3,127.8
	h385.1v350.8H127.3V127.8z M407.4,617.9v-70h140c19.3,0.1,35-15.5,35.1-34.8c0-0.1,0-0.1,0-0.2V267.8h284.6L763.4,423.4
	c-7.9,11.8-7.9,27.1,0,38.9l103.7,155.6H407.4z"/>
</svg>
