<?xml version="1.0" encoding="utf-8"?>
<!-- Generator: Adobe Illustrator 25.1.0, SVG Export Plug-In . SVG Version: 6.00 Build 0)  -->
<svg version="1.1" id="Layer_2" xmlns="http://www.w3.org/2000/svg" xmlns:xlink="http://www.w3.org/1999/xlink" x="0px" y="0px"
	 viewBox="0 0 1024 1024" style="enable-background:new 0 0 1024 1024;" xml:space="preserve">
<style type="text/css">
	.st0{fill:none;stroke:#06ADEF;stroke-width:50;stroke-linecap:round;stroke-linejoin:round;stroke-miterlimit:10;}
	.st1{fill:none;stroke:#06ADEF;stroke-width:50;stroke-linecap:round;stroke-miterlimit:10;}
</style>
<path class="st0" d="M896,496.5c0-169.3-171.1-306.6-382.1-306.6c-110.4,0-209.8,37.6-279.5,97.6l-60-57v125.3
	c4.2,36.7-22.3,119.3-77.4,139.8H58.3v170.2h137c16.7,20.2,36.3,38.8,58.4,55.2v134.4h110.3v-76.8c46,15.8,96.7,24.5,149.9,24.5
	c52.5,0,102.5-8.5,148-23.9v76.1h102.5V728C845,671.8,896,588.9,896,496.5z"/>
<path class="st1" d="M969.5,522.6c0,0-25.4,29.4-78.3,22.7"/>
<path class="st0" d="M412.7,280.9c30.6-5.1,63.7-7.9,98.3-7.9c34.8,0,68.2,2.8,98.9,8"/>
<line class="st0" x1="511.3" y1="380.8" x2="511.3" y2="424.8"/>
<line class="st0" x1="511.3" y1="617" x2="511.3" y2="661"/>
<path class="st0" d="M577.4,438.4c-24.6-19-142.6-25.3-142.6,37.2c0,48.6,35.6,44.4,75.9,44.4c34.9,0,61.1,10.3,61.1,43.6
	c0,44.4-60.5,53.4-60.5,53.4s-50.4,1.9-67.8-12.2"/>
</svg>
