<?xml version="1.0" encoding="utf-8"?>
<!-- Generator: Adobe Illustrator 25.1.0, SVG Export Plug-In . SVG Version: 6.00 Build 0)  -->
<svg version="1.1" id="Layer_2" xmlns="http://www.w3.org/2000/svg" xmlns:xlink="http://www.w3.org/1999/xlink" x="0px" y="0px"
	 viewBox="0 0 1024 1024" style="enable-background:new 0 0 1024 1024;" xml:space="preserve">
<style type="text/css">
	.st0{fill:#0074A7;}
	.st1{fill:#2B3A67;}
	.st2{fill:#FF9F1C;}
	.st3{fill:#FFE736;}
</style>
<path class="st0" d="M638.6,286.2C291.1,286.2,9.4,567.9,9.4,915.4c0,37.8,3.3,74.9,9.7,110.9h905.7c54.8,0,99.2-44.4,99.2-99.2V418
	C917.5,335.4,783.8,286.2,638.6,286.2z"/>
<path class="st1" d="M1024,501.2V927c0,54.8-44.4,99.2-99.2,99.2H83.7c-7.1-35.8-10.9-72.9-10.9-110.9
	c0-312.5,253.3-565.8,565.8-565.8C787.5,349.6,923,407.1,1024,501.2z"/>
<g>
	<g>
		<path class="st2" d="M997,651.2v251c0,54.8-44.4,99.2-99.2,99.2h-692c-5.7-63.1-2.7-126.2,13.8-188.8
			c12.5-47.2,31-92.3,68.9-125.2c40.8-35.3,88.5-45.7,140.2-27.6c8.1,2.8,15.4,6.7,21.7,11.3c18,13.2,28,32.5,26.5,51.7
			c0,0.4-0.1,0.8-0.1,1.2c-1.6,16.5-8.7,29.9-23.5,38.1c-6.8,3.7-7.1,5.9-1.9,11.3c7.1,7,15,13.2,24.5,15.3
			c22.7,5.2,45,6.3,64.9,1.9c41,29.3,91.3,46.6,145.5,46.6c55.1,0,106-17.8,147.3-47.9c27.2,9,58.3,4.7,82.1-8.3
			c3.8-2.1,6.8-5.7,10-8.7c4-3.6,3.2-5.9-1.3-9.2c-16.6-12.2-25-28.1-25.5-44c-0.4-15.6,6.8-31.3,21.6-43.7c1.9-1.6,4-3.2,6.2-4.7
			C946.7,656.9,971.5,650.5,997,651.2z"/>
	</g>
</g>
<path class="st3" d="M833.5,789.2c-41.3,30.1-92.2,47.9-147.3,47.9c-54.3,0-104.5-17.3-145.5-46.6c35.7-7.9,63.4-33.8,70.3-86.3
	c2-14.9,3.8-29.8,0.5-45c-4.8-20.8-16.3-35.4-36.5-42.2c-23.4-7.8-46.9-10.3-69,4.4c-8.9-21.3-1.2-43,20.4-57.7
	c21.4-14.3,45.3-19.8,70.7-19.2c7.8,0.2,14.6-0.2,20.3-6.6c5.4-5.9,13.2-6.3,20.9-7.2c23.3-2.7,46.2-0.1,68.3,7.1
	c28.6,9.3,47,28.6,53.8,58.6c5.4,23.5,6.7,47.4,7.7,71.3c0.8,19.6,2.9,38.9,8.2,57.8C786.2,760.9,808.2,780.8,833.5,789.2z"/>
<circle class="st1" cx="655.9" cy="566" r="16.3"/>
</svg>
