<?xml version="1.0" encoding="utf-8"?>
<!-- Generator: Adobe Illustrator 25.1.0, SVG Export Plug-In . SVG Version: 6.00 Build 0)  -->
<svg version="1.1" id="Layer_1" xmlns="http://www.w3.org/2000/svg" xmlns:xlink="http://www.w3.org/1999/xlink" x="0px" y="0px"
	 viewBox="0 0 1024 1024" style="enable-background:new 0 0 1024 1024;" xml:space="preserve">
<style type="text/css">
	.st0{fill:#FFFFFF;}
	.st1{enable-background:new    ;}
</style>
<g>
	<path class="st0" d="M767.2,503.1H175.4c-19.4,0-35.2-15.7-35.2-35.2V165.1c0-19.4,15.7-35.2,35.2-35.2h591.8
		c19.4,0,35.2,15.7,35.2,35.2v302.8C802.4,487.3,786.6,503.1,767.2,503.1z M175.4,156.8c-4.5,0-8.3,3.7-8.3,8.3v302.8
		c0,4.6,3.7,8.3,8.3,8.3h591.8c4.6,0,8.3-3.7,8.3-8.3V165.1c0-4.6-3.7-8.3-8.3-8.3H175.4z"/>
	<path class="st0" d="M788.9,428c-7.4,0-13.5-6-13.5-13.5V165.1c0-4.6-3.7-8.3-8.3-8.3H212.6c-7.3,0-13.3-5.7-13.5-13l-1-36.5
		c-0.6-19.4,14.7-35.6,34-36.2l0,0l591.6-17.5c19.4-0.6,35.6,14.7,36.2,34l0,0l0,0l9,302.7c0.6,19.4-14.7,35.6-34.1,36.2l-45.4,1.4
		H788.9z M225.7,130h541.5c19.4,0,35.2,15.7,35.2,35.2v235.4l31.7-0.9c2.2-0.1,4.2-1,5.7-2.5c1.5-1.6,2.4-3.7,2.3-5.9l-9-302.7
		c-0.2-4.5-4-8.1-8.6-8L233.1,97.8c-2.2,0.1-4.3,1-5.8,2.5c-1.5,1.6-2.3,3.8-2.3,5.9L225.7,130z"/>
	<path class="st0" d="M221.2,331.9h-11v-45.6h-5.7l-22.1,10.6l-2.9,1.5l1,3c0.4,1.2,0.8,2.4,1.4,3.5c0.6,1.2,1.3,2.4,2.2,3.4l2,2.2
		l9-4.1v25.5h-8.5h-3.1l-0.6,2.9c-0.3,1.3-0.4,2.6-0.4,4s0.1,2.7,0.4,4.1l0.7,3H218h3.3l0.4-3.1c0.2-1.3,0.3-2.5,0.3-3.9
		c0.1-1.2,0.1-2.5,0-3.7L221.2,331.9z"/>
	<path class="st0" d="M272.3,295c-2-2.8-4.6-5.1-7.6-6.7c-6.7-3.2-14.4-3.2-21.1,0c-3,1.6-5.7,3.9-7.6,6.7c-2,2.9-3.5,6.2-4.3,9.7
		c-1.8,7.7-1.8,15.7,0,23.4c0.8,3.5,2.4,6.8,4.3,9.7c2,2.7,4.5,5.1,7.5,6.7c3.3,1.7,6.9,2.5,10.6,2.5c3.7,0.1,7.3-0.8,10.6-2.5
		c3-1.6,5.7-3.9,7.6-6.7c2.1-2.9,3.6-6.2,4.3-9.7c0.9-3.8,1.4-7.7,1.4-11.7s-0.5-7.9-1.4-11.7C275.9,301.2,274.4,297.9,272.3,295z
		 M248.4,303.4c1.1-2.1,3.3-3.3,5.7-3.3c2.4-0.1,4.5,1.2,5.6,3.3c2,4.1,2.8,8.6,2.5,13c0.3,4.5-0.6,9-2.5,13
		c-1.1,2.1-3.3,3.3-5.6,3.2c-2.4,0.1-4.6-1.2-5.7-3.3c-2.1-4-2.9-8.5-2.5-12.9C245.5,311.9,246.4,307.5,248.4,303.4L248.4,303.4z"/>
	<path class="st0" d="M337.7,304.8c-0.8-3.5-2.4-6.8-4.3-9.7c-2-2.8-4.6-5.1-7.6-6.7c-6.7-3.2-14.4-3.2-21.1,0
		c-3,1.6-5.7,3.9-7.6,6.7c-2.1,2.9-3.5,6.2-4.3,9.7c-0.9,3.9-1.5,7.7-1.4,11.7c0,4,0.5,7.8,1.4,11.7c0.8,3.5,2.4,6.8,4.3,9.7
		c2,2.7,4.5,5.1,7.5,6.7c6.7,3.2,14.4,3.2,21.1,0c3.1-1.6,5.7-3.9,7.7-6.7c2.1-2.9,3.6-6.2,4.3-9.7c0.9-3.8,1.4-7.7,1.4-11.7
		C339.1,312.6,338.7,308.6,337.7,304.8z M309.3,303.5c1.1-2.1,3.3-3.3,5.7-3.3c2.4-0.1,4.5,1.2,5.6,3.3c2,4.1,2.8,8.6,2.5,13
		c0.3,4.5-0.6,9-2.5,13c-1.1,2.1-3.3,3.3-5.6,3.2c-2.4,0.1-4.6-1.1-5.7-3.3c-2.1-4-2.9-8.5-2.5-12.9
		C306.4,312,307.3,307.5,309.3,303.5L309.3,303.5z"/>
	<path class="st0" d="M645.4,331.9h-11.1v-45.6h-5.6l-22.1,10.6l-2.9,1.5l1,3c0.5,1.3,0.9,2.5,1.4,3.5c0.6,1.2,1.3,2.4,2.2,3.4
		l1.9,2.2l9-4.1v25.5h-8.5h-3l-0.6,2.9c-0.3,1.3-0.4,2.6-0.4,4s0.1,2.7,0.4,4.1l0.7,3h34.3h3.3l0.4-3.1c0.4-2.5,0.4-5.1,0-7.5
		L645.4,331.9z"/>
	<path class="st0" d="M696.5,295c-2-2.8-4.5-5.1-7.6-6.7c-6.7-3.2-14.4-3.2-21.1,0c-3,1.6-5.7,3.9-7.6,6.7c-2.1,2.9-3.5,6.2-4.3,9.7
		c-0.9,3.9-1.5,7.7-1.4,11.7c0,4,0.5,7.8,1.4,11.7c0.8,3.5,2.3,6.8,4.3,9.7c4.1,5.8,10.9,9.3,18.2,9c3.7,0.1,7.3-0.8,10.6-2.5
		c3-1.6,5.7-3.9,7.7-6.7c2-2.9,3.5-6.2,4.3-9.7c1.8-7.7,1.8-15.7,0-23.4C700,301.2,698.6,297.9,696.5,295z M672.5,303.4
		c1.1-2.1,3.3-3.3,5.7-3.3c2.4-0.1,4.5,1.2,5.7,3.3c1.9,4.1,2.7,8.6,2.5,13c0.3,4.4-0.6,9-2.5,13c-1.1,2.1-3.3,3.3-5.7,3.2
		c-2.4,0.1-4.5-1.2-5.7-3.3c-2-4-2.9-8.5-2.5-12.9C669.6,311.9,670.5,307.5,672.5,303.4L672.5,303.4z"/>
	<path class="st0" d="M761.8,304.8c-0.8-3.5-2.3-6.8-4.3-9.7c-2-2.8-4.6-5.1-7.6-6.7c-6.7-3.2-14.4-3.2-21.1,0
		c-3,1.5-5.7,3.8-7.7,6.5c-2,2.9-3.5,6.2-4.3,9.7c-1.8,7.7-1.8,15.7,0,23.4c0.8,3.5,2.4,6.8,4.3,9.7c2,2.7,4.5,5.1,7.5,6.7
		c3.3,1.7,6.9,2.5,10.6,2.5c3.7,0.1,7.3-0.8,10.6-2.5c3-1.6,5.7-3.9,7.6-6.7c2.1-2.9,3.6-6.2,4.3-9.7c0.9-3.8,1.4-7.7,1.4-11.7
		C763.2,312.5,762.7,308.6,761.8,304.8z M733.4,303.5c1.1-2.1,3.3-3.3,5.7-3.3c2.4-0.1,4.5,1.2,5.6,3.3c2,4.1,2.8,8.6,2.5,13
		c0.3,4.5-0.6,9-2.5,13c-1.1,2.1-3.3,3.3-5.6,3.2c-2.4,0.1-4.6-1.2-5.7-3.3c-2-4-2.9-8.5-2.5-12.9
		C730.6,312,731.5,307.5,733.4,303.5z"/>
	<path class="st0" d="M236.3,503.1h-60.9c-19.4,0-35.2-15.7-35.2-35.2V397c0-4.1,2-8,5.3-10.6c3.3-2.5,7.5-3.4,11.6-2.5
		c49.1,12.6,85.7,53.6,92.6,103.9c0.9,7.4-4.2,14.1-11.6,15.1C237.6,503.1,237.1,503.1,236.3,503.1L236.3,503.1z M167.1,416v51.9
		c0,4.6,3.7,8.3,8.3,8.3h44.1C211.4,449.5,192.4,427.7,167.1,416L167.1,416z"/>
	<path class="st0" d="M767.2,503.1h-60.9c-7.4,0-13.5-6-13.4-13.5c0-0.6,0-1.1,0.1-1.7c7-50.2,43.5-91.2,92.6-103.9
		c4.1-1,8.3-0.1,11.6,2.5c3.3,2.5,5.3,6.4,5.3,10.6v70.9C802.5,487.3,786.8,503.2,767.2,503.1C767.3,503.1,767.3,503.1,767.2,503.1z
		 M723.1,476.1h44.1c4.6,0,8.3-3.7,8.3-8.3v-51.9C750.3,427.7,731.2,449.5,723.1,476.1L723.1,476.1z"/>
	<path class="st0" d="M153.7,249.4c-7.4,0-13.5-6-13.5-13.4v-70.9c0-19.4,15.7-35.2,35.2-35.2h60.9c7.4,0,13.5,6,13.5,13.5
		c0,0.6,0,1.1-0.1,1.8c-7,50.2-43.5,91.2-92.6,103.9C155.9,249.3,154.9,249.4,153.7,249.4z M175.4,156.8c-4.5,0-8.3,3.7-8.3,8.3V217
		c25.3-11.7,44.4-33.6,52.5-60.2L175.4,156.8z"/>
	<path class="st0" d="M788.9,249.4c-1.1,0-2.2-0.1-3.3-0.4c-49.1-12.6-85.7-53.7-92.6-103.9c-0.6-3.9,0.7-7.6,3.2-10.6
		c2.5-2.9,6.2-4.6,10.1-4.6h60.9c19.4,0,35.2,15.7,35.2,35.2V236C802.4,243.4,796.4,249.5,788.9,249.4L788.9,249.4z M723.1,156.8
		c8.2,26.6,27.2,48.4,52.5,60.2v-51.9c0-4.6-3.7-8.3-8.3-8.3H723.1z"/>
	<path class="st0" d="M471.3,434.7c-64.4,0-116.5-52.1-116.5-116.5S407,201.8,471.3,201.8s116.5,52.1,116.5,116.5l0,0
		C587.8,382.6,535.6,434.7,471.3,434.7z M471.3,223.3c-52.5,0-95,42.5-95,95s42.5,95,95,95s95-42.5,95-95S523.8,223.3,471.3,223.3z"
		/>
	<path class="st0" d="M475.9,305.2c-15.1-5.3-24.3-8.7-24.3-17.4s7-13.4,19.6-13.4c9.2-0.2,18.1,4.1,23.6,11.6
		c3.5,4.8,10.3,5.8,15,2.3c4.8-3.5,5.8-10.3,2.3-15l0,0c-7.4-10.5-18.9-17.4-31.7-19.1v-8.4c-0.4-5.4-5.1-9.3-10.4-9
		c-4.8,0.4-8.6,4.1-9,9v8.3c-23.2,3.7-31.7,19.5-31.7,33.7c0,25.3,21.6,32.2,38.8,37.9c15.8,5.3,25.8,9,25.8,19.6
		c0,4.2,0,17.3-24.2,17.3c-10.5,0.5-20.4-4.8-25.9-13.8c-2-3.3-5.5-5.3-9.3-5.3c-5.8,0-10.6,4.7-10.6,10.6c0,1.9,0.6,3.7,1.4,5.3
		c7.5,12.9,20.8,21.5,35.7,23.2v8.1c0.4,5.4,5.1,9.3,10.4,9c4.8-0.4,8.6-4.1,9-9v-8.1c22.8-3.1,35.7-16.7,35.7-37.7
		C516.3,318.9,494.1,311.3,475.9,305.2z"/>
	<g class="st1">
		<path class="st0" d="M63.4,816.5v34.2h45.9v21.7H63.4v36.1h51.8v22.3H36.1V794.2h79.1v22.3H63.4z"/>
	</g>
	<g class="st1">
		<path class="st0" d="M198,930.7l-22.3-33.6L156,930.7h-29.3l35.4-54.3l-35.7-53.9h30.9l22.1,33.4l19.9-33.4h29.3l-35.5,53.9
			l35.9,54.3H198z"/>
	</g>
	<g class="st1">
		<path class="st0" d="M238.8,847.3c4.6-8.4,10.9-14.9,18.9-19.5c8.1-4.6,17.3-6.9,27.7-6.9c13.4,0,24.5,3.4,33.3,10.1
			c8.8,6.7,14.7,16.1,17.7,28.2H307c-1.6-4.7-4.2-8.4-7.9-11c-3.7-2.7-8.3-4-13.8-4c-7.8,0-14,2.8-18.6,8.5
			c-4.6,5.7-6.8,13.7-6.8,24.1c0,10.3,2.3,18.3,6.8,23.9c4.6,5.7,10.7,8.5,18.6,8.5c11.1,0,18.3-4.9,21.7-14.8h29.5
			c-3,11.7-8.9,21-17.8,27.9c-8.9,6.9-19.9,10.4-33.2,10.4c-10.4,0-19.7-2.3-27.7-6.9c-8.1-4.6-14.4-11.1-18.9-19.5
			c-4.6-8.4-6.8-18.2-6.8-29.4C232,865.4,234.3,855.6,238.8,847.3z"/>
		<path class="st0" d="M439.4,826.4c6.4,3.6,11.4,8.9,14.9,15.8c3.6,7,5.4,15.3,5.4,25.1v63.5h-27.3V871c0-8.6-2.1-15.2-6.4-19.8
			c-4.3-4.6-10.2-6.9-17.6-6.9c-7.6,0-13.5,2.3-17.9,6.9c-4.4,4.6-6.5,11.2-6.5,19.8v59.8h-27.3V786.2h27.3V836
			c3.5-4.7,8.2-8.4,14.1-11c5.9-2.7,12.4-4,19.5-4C425.7,821,433,822.8,439.4,826.4z"/>
		<path class="st0" d="M485.2,847.2c4.4-8.5,10.3-15,17.8-19.5c7.5-4.6,15.9-6.8,25.1-6.8c8.1,0,15.1,1.6,21.2,4.9
			c6.1,3.3,10.9,7.4,14.5,12.3v-15.4h27.5v108.2h-27.5v-15.8c-3.5,5.1-8.4,9.3-14.5,12.6c-6.2,3.3-13.3,5-21.4,5
			c-9.1,0-17.4-2.3-24.9-7c-7.5-4.7-13.4-11.3-17.8-19.8c-4.4-8.5-6.5-18.3-6.5-29.4C478.6,865.3,480.8,855.6,485.2,847.2z
			 M559.9,859.6c-2.6-4.8-6.1-8.4-10.5-10.9c-4.4-2.5-9.2-3.8-14.3-3.8c-5.1,0-9.8,1.2-14.1,3.7c-4.3,2.5-7.8,6.1-10.4,10.8
			c-2.7,4.8-4,10.4-4,16.9c0,6.5,1.3,12.2,4,17.1c2.7,4.9,6.2,8.6,10.5,11.2c4.4,2.6,9,3.9,14,3.9c5.1,0,9.8-1.3,14.3-3.8
			c4.4-2.5,7.9-6.2,10.5-10.9c2.6-4.8,3.9-10.4,3.9-17.1S562.5,864.3,559.9,859.6z"/>
		<path class="st0" d="M709.3,833.2c7.9,8.1,11.9,19.5,11.9,34.1v63.5h-27.3V871c0-8.6-2.1-15.2-6.4-19.8
			c-4.3-4.6-10.2-6.9-17.6-6.9c-7.6,0-13.5,2.3-17.9,6.9c-4.4,4.6-6.5,11.2-6.5,19.8v59.8h-27.3V822.5h27.3V836
			c3.6-4.7,8.3-8.4,14-11c5.7-2.7,11.9-4,18.7-4C690.9,821,701.4,825.1,709.3,833.2z"/>
		<path class="st0" d="M810.9,825.6c6.1,3.2,10.9,7.3,14.5,12.4v-15.4h27.5v109c0,10-2,19-6.1,26.9c-4,7.9-10.1,14.1-18.2,18.7
			c-8.1,4.6-17.8,6.9-29.3,6.9c-15.4,0-28-3.6-37.8-10.7c-9.8-7.2-15.4-16.9-16.7-29.3H772c1.4,4.9,4.5,8.9,9.3,11.8
			c4.8,2.9,10.5,4.4,17.3,4.4c7.9,0,14.4-2.4,19.3-7.1c4.9-4.8,7.4-11.9,7.4-21.6v-16.8c-3.5,5.1-8.4,9.3-14.6,12.7
			c-6.2,3.4-13.3,5.1-21.2,5.1c-9.1,0-17.4-2.3-25-7c-7.6-4.7-13.5-11.3-17.9-19.8c-4.4-8.5-6.5-18.3-6.5-29.4
			c0-10.9,2.2-20.6,6.5-29.1c4.4-8.5,10.3-15,17.8-19.5c7.5-4.6,15.9-6.8,25.1-6.8C797.6,820.8,804.7,822.4,810.9,825.6z
			 M821.4,859.6c-2.6-4.8-6.1-8.4-10.5-10.9c-4.4-2.5-9.2-3.8-14.3-3.8c-5.1,0-9.8,1.2-14.1,3.7c-4.3,2.5-7.8,6.1-10.4,10.8
			c-2.7,4.8-4,10.4-4,16.9c0,6.5,1.3,12.2,4,17.1c2.7,4.9,6.2,8.6,10.5,11.2c4.4,2.6,9,3.9,14,3.9c5.1,0,9.8-1.3,14.3-3.8
			c4.4-2.5,7.9-6.2,10.5-10.9c2.6-4.8,3.9-10.4,3.9-17.1S824,864.3,821.4,859.6z"/>
		<path class="st0" d="M979.4,884.8h-79.1c0.6,7.8,3.4,13.9,8.2,18.4c4.8,4.4,10.7,6.6,17.8,6.6c10.2,0,17.4-4.4,21.7-13.1h29.5
			c-3.1,10.4-9.1,19-18,25.7c-8.9,6.7-19.7,10.1-32.6,10.1c-10.4,0-19.8-2.3-28-6.9c-8.3-4.6-14.7-11.2-19.3-19.6
			c-4.6-8.5-6.9-18.2-6.9-29.3c0-11.2,2.3-21,6.8-29.5c4.6-8.5,10.9-15,19.1-19.5c8.2-4.6,17.6-6.8,28.3-6.8
			c10.3,0,19.5,2.2,27.6,6.6c8.1,4.4,14.5,10.7,18.9,18.8c4.5,8.1,6.7,17.5,6.7,28C980.2,878.2,979.9,881.7,979.4,884.8z
			 M951.9,866.5c-0.1-7-2.7-12.7-7.6-16.9c-4.9-4.2-11-6.3-18.2-6.3c-6.8,0-12.5,2.1-17.1,6.2c-4.6,4.1-7.5,9.8-8.5,17.1H951.9z"/>
	</g>
</g>
</svg>
