<svg xmlns="http://www.w3.org/2000/svg" xmlns:xlink="http://www.w3.org/1999/xlink" id="Layer_1" x="0" y="0" version="1.1" viewBox="0 0 1024 1024" xml:space="preserve" style="enable-background:new 0 0 1024 1024"><style type="text/css">.st0{fill:#fff}.st1{enable-background:new}</style><g><path d="M792.8,606.9H241.2c-39.4,0-71.3-32-71.3-71.3V219.2c0-39.4,32-71.3,71.3-71.3h551.6c39.4,0,71.3,32,71.3,71.3 v316.2C864.2,574.9,832.2,606.8,792.8,606.9z M241.2,173.4c-25.3,0-45.7,20.5-45.8,45.8v316.2c0,25.3,20.5,45.7,45.8,45.8h551.6 c25.3,0,45.7-20.5,45.8-45.8V219.2c0-25.3-20.5-45.7-45.8-45.8H241.2L241.2,173.4z" class="st0"/><path d="M558.8,411.1h-83.7c-7,0-12.8-5.7-12.8-12.8v-53.2c0-7,5.6-12.8,12.8-12.8c0,0,0,0,0.1,0h83.7 c7,0,12.8,5.7,12.8,12.8c0,0,0,0,0,0.1v53c0.1,7-5.6,12.8-12.7,12.8C558.9,411.1,558.8,411.1,558.8,411.1z M487.9,385.3h58v-27.6 h-58V385.3z" class="st0"/><path d="M733.2,390.1H558.8c-7,0-12.8-5.6-12.8-12.8v-0.1v-19.5h-58v19.8c0,7.1-5.7,12.8-12.8,12.8H300.8 c-30.7-0.1-58-19.4-68.2-48.3L179.9,192c-1.3-3.7-0.8-7.9,1.3-11.2c13.1-20.3,35.7-32.6,59.9-32.6h551.6 c24.1,0,46.6,12.2,59.7,32.3c2.2,3.3,2.7,7.5,1.3,11.2l-52.3,149.9C791.3,370.6,763.9,390,733.2,390.1z M571.6,364.4h161.6 c19.8,0,37.4-12.6,44.1-31.2l50.5-143.7c-8.7-10.3-21.4-16.2-34.9-16.2H241.2c-13.5,0-26.2,5.9-34.9,16.2l50.5,143.7 c6.6,18.7,24.2,31.2,44.1,31.2h161.6v-19.5c0-7,5.6-12.8,12.8-12.8c0,0,0,0,0.1,0H559c7,0,12.8,5.7,12.8,12.8c0,0,0,0,0,0.1 L571.6,364.4z" class="st0"/><path d="M613.9,173.4c-7.1,0-12.8-5.7-12.8-12.8V104c0-4.8-3.9-8.7-8.7-8.7H441.5c-4.8,0-8.7,3.9-8.7,8.7v56.7 c0,7.1-5.7,12.8-12.8,12.8c-7.1,0-12.8-5.7-12.8-12.8V104c0-18.9,15.3-34.2,34.2-34.2l0,0h151c18.9,0,34.2,15.3,34.2,34.2l0,0v56.7 C626.6,167.6,620.9,173.3,613.9,173.4z" class="st0"/><g class="st1"><path d="M178.2,852c-3.4,6.2-8.6,11.2-15.8,15c-7.2,3.8-16.2,5.7-27.1,5.7h-22.3v51H86.3V790.8h48.9 c10.3,0,19,1.8,26.3,5.3c7.2,3.6,12.7,8.4,16.3,14.7c3.6,6.2,5.4,13.3,5.4,21.1C183.2,839.1,181.5,845.7,178.2,852z M150.5,846.1 c3.6-3.4,5.3-8.1,5.3-14.2c0-12.9-7.2-19.4-21.7-19.4h-21.1v38.7h21.1C141.4,851.2,146.9,849.5,150.5,846.1z" class="st0"/><path d="M198,842.2c4.3-8.3,10-14.6,17.3-19c7.3-4.4,15.5-6.7,24.5-6.7c7.9,0,14.8,1.6,20.7,4.8 c5.9,3.2,10.6,7.2,14.2,12v-15h26.9v105.5h-26.9v-15.4c-3.4,5-8.2,9-14.2,12.3c-6,3.2-13,4.9-20.9,4.9c-8.9,0-17-2.3-24.3-6.9 c-7.3-4.6-13.1-11-17.3-19.3c-4.3-8.3-6.4-17.9-6.4-28.7C191.6,859.9,193.7,850.5,198,842.2z M270.8,854.3 c-2.5-4.6-6-8.2-10.3-10.7c-4.3-2.5-9-3.7-13.9-3.7c-5,0-9.5,1.2-13.7,3.6c-4.2,2.4-7.6,5.9-10.2,10.6c-2.6,4.6-3.9,10.1-3.9,16.5 c0,6.4,1.3,11.9,3.9,16.7c2.6,4.8,6,8.4,10.3,11c4.3,2.5,8.8,3.8,13.6,3.8c5,0,9.6-1.2,13.9-3.7c4.3-2.5,7.7-6,10.3-10.7 c2.5-4.6,3.8-10.2,3.8-16.7C274.6,864.5,273.3,859,270.8,854.3z" class="st0"/></g><g class="st1"><path d="M422.8,818.2l-65.3,155.4h-28.4l22.9-52.6l-42.3-102.8h29.9l27.2,73.7l27.6-73.7H422.8z" class="st0"/><path d="M599.5,828.6c7.9,7.9,11.9,19,11.9,33.2v61.9h-26.7v-58.3c0-8.3-2.1-14.6-6.3-18.9c-4.2-4.4-9.9-6.6-17.1-6.6 c-7.2,0-13,2.2-17.2,6.6c-4.3,4.4-6.4,10.7-6.4,18.9v58.3H511v-58.3c0-8.3-2.1-14.6-6.3-18.9c-4.2-4.4-9.9-6.6-17.1-6.6 c-7.4,0-13.2,2.2-17.4,6.6c-4.3,4.4-6.4,10.7-6.4,18.9v58.3h-26.7V818.2h26.7V831c3.4-4.4,7.8-7.9,13.2-10.5 c5.4-2.5,11.3-3.8,17.8-3.8c8.3,0,15.6,1.7,22.1,5.2c6.5,3.5,11.5,8.5,15,14.9c3.4-6.1,8.4-11,14.9-14.7 c6.5-3.7,13.6-5.5,21.2-5.5C581.1,816.7,591.5,820.7,599.5,828.6z" class="st0"/><path d="M734,879h-77.1c0.6,7.6,3.3,13.6,8,17.9c4.7,4.3,10.5,6.5,17.3,6.5c9.9,0,16.9-4.3,21.1-12.8h28.8 c-3,10.2-8.9,18.5-17.5,25c-8.6,6.5-19.2,9.8-31.8,9.8c-10.2,0-19.3-2.3-27.3-6.8c-8.1-4.5-14.3-10.9-18.9-19.1 c-4.5-8.3-6.8-17.8-6.8-28.6c0-10.9,2.2-20.5,6.7-28.8c4.4-8.3,10.7-14.6,18.7-19c8-4.4,17.2-6.7,27.6-6.7c10,0,19,2.2,26.9,6.5 c7.9,4.3,14.1,10.4,18.5,18.4c4.4,7.9,6.6,17,6.6,27.3C734.8,872.5,734.5,875.9,734,879z M707.1,861.1c-0.1-6.9-2.6-12.3-7.4-16.5 c-4.8-4.1-10.7-6.2-17.7-6.2c-6.6,0-12.2,2-16.7,6c-4.5,4-7.3,9.6-8.3,16.7H707.1z" class="st0"/></g><g class="st1"><path d="M837.6,828.6c7.7,7.9,11.6,19,11.6,33.2v61.9h-26.7v-58.3c0-8.4-2.1-14.8-6.3-19.3c-4.2-4.5-9.9-6.8-17.1-6.8 c-7.4,0-13.2,2.3-17.4,6.8c-4.3,4.5-6.4,10.9-6.4,19.3v58.3h-26.7V818.2h26.7v13.1c3.6-4.6,8.1-8.2,13.6-10.8 c5.5-2.6,11.6-3.9,18.2-3.9C819.7,816.7,829.9,820.7,837.6,828.6z" class="st0"/></g><g class="st1"><path d="M893.8,840.1v51c0,3.6,0.9,6.1,2.6,7.7c1.7,1.6,4.6,2.4,8.7,2.4h12.4v22.5h-16.8c-22.5,0-33.7-10.9-33.7-32.8 v-50.8h-12.6v-21.9H867v-26.1h26.9v26.1h23.6v21.9H893.8z" class="st0"/></g></g></svg>