<svg xmlns="http://www.w3.org/2000/svg" xmlns:xlink="http://www.w3.org/1999/xlink" id="Layer_1" x="0" y="0" version="1.1" viewBox="0 0 1024 1024" xml:space="preserve" style="enable-background:new 0 0 1024 1024"><style type="text/css">.st0{fill:#fff}.st1{enable-background:new}</style><g><path d="M641.4,699.1H300.2c-34.3-0.1-62.1-27.9-62.2-62.2v-527c0.1-34.3,27.9-62.1,62.2-62.2h378 c34.3,0,62.2,27.8,62.2,62.2v485.2c0,3.1-1.2,6.2-3.4,8.4l-86.8,91.6C648,697.6,644.8,699.1,641.4,699.1z M300.2,72.2 c-20.8,0.1-37.6,16.9-37.6,37.6v527c0,20.8,16.9,37.6,37.6,37.6h335.9l79.7-84.2V109.9c0-20.8-16.9-37.6-37.6-37.6L300.2,72.2z" class="st0"/><path d="M641.4,699.1c-5.6,0-10.5-3.9-11.9-9.3l-22.9-91.6c-1.7-6.6,2.3-13.2,8.9-14.9c1-0.2,2-0.4,3-0.4h109.6 c6.8-0.4,12.6,4.7,13,11.5s-4.7,12.6-11.5,13c-0.5,0-1,0-1.5,0h-93.9l19.3,76.4c1.7,6.5-2.2,13.2-8.8,14.9c-0.1,0-0.1,0-0.2,0 C643.6,699,642.5,699.1,641.4,699.1z" class="st0"/><path d="M563.8,175.3H414.9c-6.8-0.4-11.9-6.3-11.5-13c0.4-6.2,5.3-11.1,11.5-11.5h148.9c6.8-0.4,12.6,4.7,13,11.5 s-4.7,12.6-11.5,13C564.8,175.4,564.3,175.4,563.8,175.3z" class="st0"/><path d="M645.7,261.3H333c-6.8,0.4-12.6-4.7-13-11.5c-0.4-6.8,4.7-12.6,11.5-13c0.5,0,1,0,1.5,0h312.7 c6.8-0.4,12.6,4.7,13,11.5s-4.7,12.6-11.5,13C646.7,261.3,646.2,261.3,645.7,261.3z" class="st0"/><path d="M645.7,347.2H333c-6.8,0.4-12.6-4.7-13-11.5s4.7-12.6,11.5-13c0.5,0,1,0,1.5,0h312.7c6.8-0.4,12.6,4.7,13,11.5 s-4.7,12.6-11.5,13C646.7,347.2,646.2,347.2,645.7,347.2z" class="st0"/><path d="M645.7,433.1H333c-6.8,0.4-12.6-4.7-13-11.5s4.7-12.6,11.5-13c0.5,0,1,0,1.5,0h312.7c6.8-0.4,12.6,4.7,13,11.5 s-4.7,12.6-11.5,13C646.7,433.2,646.2,433.2,645.7,433.1z" class="st0"/><path d="M645.7,519.1H333c-6.8,0.4-12.6-4.7-13-11.5s4.7-12.6,11.5-13c0.5,0,1,0,1.5,0h312.7c6.8-0.4,12.6,4.7,13,11.5 s-4.7,12.6-11.5,13C646.7,519.1,646.2,519.1,645.7,519.1z" class="st0"/><path d="M481.1,605H333c-6.8,0-12.3-5.5-12.3-12.3s5.5-12.2,12.3-12.3h148.1c6.8,0,12.3,5.5,12.3,12.3 C493.3,599.5,487.8,605,481.1,605L481.1,605z" class="st0"/><path d="M809.8,540c-3.4,0-6.6-1.4-9-3.9l-22.7-24.4c-2.1-2.3-3.3-5.2-3.3-8.3V212c0-6.8,5.5-12.2,12.3-12.2h45.4 c6.8,0,12.3,5.5,12.3,12.2v291.2c0,3.1-1.2,6.1-3.3,8.3l-22.7,24.4C816.5,538.5,813.3,540,809.8,540z M799.4,498.5l10.5,11.2 l10.5-11.2v-274h-20.9L799.4,498.5z" class="st0"/><path d="M827.4,300.5h-40.2c-6.8,0.4-12.6-4.7-13-11.5s4.7-12.6,11.5-13c0.5,0,1,0,1.5,0h40.2 c6.8-0.4,12.6,4.7,13,11.5s-4.7,12.6-11.5,13C828.4,300.5,827.9,300.5,827.4,300.5z" class="st0"/><path d="M869.5,340.5c-6.8,0-12.2-5.5-12.2-12.3v-85.4h-24.7c-6.8,0.4-12.6-4.7-13-11.5s4.7-12.6,11.5-13 c0.5,0,1,0,1.5,0h36.9c6.8,0,12.3,5.5,12.3,12.2v97.7C881.8,335,876.3,340.5,869.5,340.5L869.5,340.5z" class="st0"/><path d="M809.8,566.5c-6.8,0-12.2-5.5-12.2-12.3v-26.5c0.4-6.8,6.3-11.9,13-11.5c6.2,0.4,11.1,5.3,11.5,11.5v26.4 C822.1,560.9,816.7,566.5,809.8,566.5C809.9,566.5,809.8,566.5,809.8,566.5z" class="st0"/><g class="st1"><path d="M215.8,964.7l-27.5-48.5h-11.8v48.5h-25V840.2h46.7c9.6,0,17.8,1.7,24.6,5.1c6.8,3.4,11.9,8,15.2,13.7 c3.4,5.8,5.1,12.2,5.1,19.3c0,8.2-2.4,15.6-7.1,22.2c-4.8,6.6-11.8,11.1-21.2,13.6l29.8,50.5H215.8z M176.5,897.5h20.9 c6.8,0,11.8-1.6,15.2-4.9c3.3-3.3,5-7.8,5-13.6c0-5.7-1.7-10.1-5-13.3c-3.3-3.1-8.4-4.7-15.2-4.7h-20.9V897.5z" class="st0"/></g><g class="st1"><path d="M350,922.8h-72.2c0.6,7.1,3.1,12.7,7.5,16.8c4.4,4,9.8,6.1,16.2,6.1c9.3,0,15.9-4,19.8-11.9h26.9 c-2.9,9.5-8.3,17.3-16.4,23.4c-8.1,6.1-18,9.2-29.8,9.2c-9.5,0-18-2.1-25.6-6.3c-7.6-4.2-13.4-10.2-17.7-17.9 c-4.2-7.7-6.3-16.6-6.3-26.7c0-10.2,2.1-19.2,6.2-26.9c4.2-7.7,10-13.7,17.5-17.8c7.5-4.2,16.1-6.2,25.9-6.2 c9.4,0,17.8,2,25.2,6.1c7.4,4,13.2,9.8,17.3,17.2c4.1,7.4,6.2,16,6.2,25.6C350.8,916.7,350.5,919.9,350,922.8z M324.9,906 c-0.1-6.4-2.4-11.6-7-15.4c-4.5-3.9-10-5.8-16.6-5.8c-6.2,0-11.4,1.9-15.6,5.6c-4.2,3.7-6.8,8.9-7.8,15.6H324.9z" class="st0"/><path d="M368.7,888.8c4.1-7.7,9.7-13.6,16.7-17.9c7-4.3,14.7-6.4,23.2-6.4c7,0,13.2,1.3,18.6,4 c5.4,2.7,9.8,6.1,13.1,10.3v-12.8h25.1v145.9h-25.1v-60.6c-3.3,4.3-7.8,7.8-13.4,10.7c-5.6,2.9-11.9,4.3-18.9,4.3 c-8.3,0-16-2.2-22.9-6.5c-7-4.3-12.5-10.4-16.5-18.1c-4-7.7-6.1-16.5-6.1-26.4C362.5,905.2,364.6,896.5,368.7,888.8z M436.5,899.6 c-2.5-4.4-5.7-7.7-9.7-10c-4-2.3-8.2-3.4-12.8-3.4c-4.4,0-8.6,1.1-12.6,3.4c-4,2.3-7.2,5.6-9.7,9.9c-2.5,4.3-3.7,9.5-3.7,15.6 c0,6.1,1.2,11.3,3.7,15.8s5.7,7.8,9.7,10.1c4,2.3,8.2,3.4,12.6,3.4c4.5,0,8.8-1.1,12.8-3.4c4-2.3,7.2-5.6,9.7-10 c2.5-4.4,3.7-9.6,3.7-15.7C440.3,909.2,439,904,436.5,899.6z" class="st0"/><path d="M583.1,865.9v98.8H558v-12.5c-3.2,4.3-7.4,7.6-12.6,10.1c-5.2,2.4-10.8,3.7-16.9,3.7 c-7.7,0-14.6-1.6-20.5-4.9c-5.9-3.3-10.6-8.1-14-14.4c-3.4-6.4-5.1-13.9-5.1-22.7v-58h25v54.4c0,7.8,2,13.9,5.9,18.1 c3.9,4.2,9.3,6.3,16,6.3c6.9,0,12.3-2.1,16.2-6.3c3.9-4.2,5.9-10.3,5.9-18.1v-54.4H583.1z" class="st0"/><path d="M698.8,922.8h-72.2c0.6,7.1,3.1,12.7,7.5,16.8c4.4,4,9.8,6.1,16.2,6.1c9.3,0,15.9-4,19.8-11.9H697 c-2.9,9.5-8.3,17.3-16.4,23.4c-8.1,6.1-18,9.2-29.8,9.2c-9.5,0-18-2.1-25.6-6.3c-7.6-4.2-13.4-10.2-17.7-17.9 c-4.2-7.7-6.3-16.6-6.3-26.7c0-10.2,2.1-19.2,6.2-26.9c4.2-7.7,10-13.7,17.5-17.8c7.5-4.2,16.1-6.2,25.9-6.2 c9.4,0,17.8,2,25.2,6.1c7.4,4,13.2,9.8,17.3,17.2c4.1,7.4,6.2,16,6.2,25.6C699.5,916.7,699.3,919.9,698.8,922.8z M673.7,906 c-0.1-6.4-2.4-11.6-7-15.4c-4.5-3.9-10-5.8-16.6-5.8c-6.2,0-11.4,1.9-15.6,5.6c-4.2,3.7-6.8,8.9-7.8,15.6H673.7z" class="st0"/></g><g class="st1"><path d="M724.7,961.9c-6.4-2.9-11.5-6.9-15.2-11.9c-3.7-5-5.8-10.5-6.2-16.6h25.1c0.5,3.8,2.3,7,5.6,9.5 c3.3,2.5,7.3,3.7,12.2,3.7c4.8,0,8.5-1,11.1-2.9c2.7-1.9,4-4.3,4-7.3c0-3.2-1.6-5.6-4.9-7.2c-3.3-1.6-8.5-3.4-15.6-5.3 c-7.4-1.8-13.4-3.6-18.1-5.5c-4.7-1.9-8.7-4.8-12.1-8.7c-3.4-3.9-5.1-9.2-5.1-15.9c0-5.5,1.6-10.5,4.7-15 c3.1-4.5,7.7-8.1,13.6-10.7c5.9-2.6,12.8-3.9,20.8-3.9c11.8,0,21.2,2.9,28.2,8.8c7,5.9,10.9,13.8,11.6,23.8h-23.9 c-0.4-3.9-2-7-4.9-9.4c-2.9-2.3-6.8-3.5-11.7-3.5c-4.5,0-8,0.8-10.4,2.5c-2.4,1.7-3.7,4-3.7,7c0,3.3,1.7,5.9,5,7.6 c3.3,1.7,8.5,3.5,15.5,5.3c7.1,1.8,13,3.6,17.7,5.5c4.6,1.9,8.6,4.8,12,8.8c3.4,4,5.1,9.2,5.3,15.8c0,5.7-1.6,10.8-4.7,15.3 c-3.2,4.5-7.7,8.1-13.6,10.6c-5.9,2.6-12.8,3.8-20.6,3.8C738.4,966.3,731.2,964.8,724.7,961.9z" class="st0"/></g><g class="st1"><path d="M827.5,886.4v47.8c0,3.3,0.8,5.7,2.4,7.2c1.6,1.5,4.3,2.2,8.1,2.2h11.6v21H834c-21,0-31.6-10.2-31.6-30.7 v-47.6h-11.8v-20.5h11.8v-24.4h25.1v24.4h22.1v20.5H827.5z" class="st0"/></g></g></svg>