<?xml version="1.0" encoding="utf-8"?>
<!-- Generator: Adobe Illustrator 25.1.0, SVG Export Plug-In . SVG Version: 6.00 Build 0)  -->
<svg version="1.1" id="Layer_1" xmlns="http://www.w3.org/2000/svg" xmlns:xlink="http://www.w3.org/1999/xlink" x="0px" y="0px"
	 viewBox="0 0 1024 1024" style="enable-background:new 0 0 1024 1024;" xml:space="preserve">
<style type="text/css">
	.st0{enable-background:new    ;}
	.st1{fill:#FFFFFF;}
</style>
<g>
	<g class="st0">
		<path class="st1" d="M65.1,906.6c-6.6-2.8-11.9-6.9-15.7-12.2c-3.8-5.3-5.8-11.6-5.9-18.8h25.5c0.3,4.9,2.1,8.7,5.2,11.5
			c3.1,2.8,7.4,4.2,12.8,4.2c5.5,0,9.9-1.3,13.1-4c3.2-2.7,4.8-6.1,4.8-10.4c0-3.5-1.1-6.4-3.2-8.7c-2.2-2.3-4.8-4-8.1-5.3
			c-3.2-1.3-7.7-2.7-13.3-4.3c-7.7-2.3-13.9-4.5-18.8-6.7c-4.8-2.2-8.9-5.5-12.4-10c-3.5-4.5-5.2-10.4-5.2-17.9
			c0-7,1.8-13.1,5.3-18.3c3.5-5.2,8.4-9.2,14.8-12c6.3-2.8,13.6-4.2,21.7-4.2c12.2,0,22.1,3,29.8,8.9c7.6,5.9,11.9,14.2,12.6,24.9
			h-26.1c-0.2-4.1-2-7.4-5.2-10.1c-3.2-2.7-7.5-4-12.8-4c-4.6,0-8.3,1.2-11.1,3.6c-2.8,2.4-4.2,5.8-4.2,10.4c0,3.2,1,5.8,3.1,7.9
			c2.1,2.1,4.7,3.8,7.8,5.1c3.1,1.3,7.5,2.8,13.2,4.5c7.7,2.3,14,4.5,18.8,6.8c4.9,2.3,9.1,5.7,12.6,10.2c3.5,4.5,5.3,10.5,5.3,17.8
			c0,6.3-1.6,12.2-4.9,17.7c-3.3,5.4-8.1,9.8-14.4,13c-6.3,3.2-13.9,4.8-22.6,4.8C79.2,910.8,71.7,909.4,65.1,906.6z"/>
		<path class="st1" d="M186.3,818.4c5.4-2.9,11.5-4.3,18.4-4.3c8,0,15.3,2,21.8,5.9c6.5,4,11.7,9.6,15.4,16.9
			c3.8,7.3,5.7,15.8,5.7,25.4c0,9.6-1.9,18.1-5.7,25.5c-3.8,7.4-8.9,13.2-15.4,17.2c-6.5,4.1-13.8,6.1-21.8,6.1
			c-6.9,0-13-1.4-18.2-4.2c-5.3-2.8-9.5-6.4-12.8-10.7v58.2h-23.8V815.6h23.8v13.6C176.7,824.9,180.9,821.3,186.3,818.4z
			 M219.9,847.6c-2.3-4.1-5.4-7.3-9.2-9.4c-3.8-2.1-7.9-3.2-12.3-3.2c-4.3,0-8.3,1.1-12.1,3.3c-3.8,2.2-6.8,5.4-9.2,9.6
			c-2.3,4.2-3.5,9.1-3.5,14.8c0,5.7,1.2,10.6,3.5,14.8c2.3,4.2,5.4,7.4,9.2,9.6c3.8,2.2,7.8,3.3,12.1,3.3c4.4,0,8.5-1.1,12.3-3.4
			c3.8-2.3,6.8-5.5,9.2-9.7c2.3-4.2,3.5-9.2,3.5-14.9C223.4,856.6,222.2,851.7,219.9,847.6z"/>
		<path class="st1" d="M351.7,869.7H283c0.6,6.8,2.9,12.1,7.1,16c4.2,3.8,9.3,5.8,15.4,5.8c8.8,0,15.1-3.8,18.8-11.4H350
			c-2.7,9.1-7.9,16.5-15.6,22.3c-7.7,5.8-17.1,8.7-28.3,8.7c-9.1,0-17.2-2-24.4-6c-7.2-4-12.8-9.7-16.8-17.1c-4-7.4-6-15.8-6-25.5
			c0-9.7,2-18.3,5.9-25.6c4-7.4,9.5-13,16.6-17c7.1-4,15.3-5.9,24.6-5.9c8.9,0,16.9,1.9,24,5.8c7.1,3.8,12.6,9.3,16.5,16.4
			c3.9,7.1,5.9,15.2,5.9,24.4C352.4,864,352.1,867,351.7,869.7z M327.8,853.8c-0.1-6.1-2.3-11-6.6-14.7c-4.3-3.7-9.6-5.5-15.8-5.5
			c-5.9,0-10.8,1.8-14.9,5.3c-4,3.6-6.5,8.5-7.4,14.9H327.8z"/>
		<path class="st1" d="M448.9,824.8c6.9,7.1,10.4,16.9,10.4,29.6v55.2h-23.8v-51.9c0-7.5-1.9-13.2-5.6-17.2c-3.7-4-8.8-6-15.3-6
			c-6.6,0-11.7,2-15.5,6c-3.8,4-5.7,9.8-5.7,17.2v51.9h-23.8v-94h23.8v11.7c3.2-4.1,7.2-7.3,12.1-9.6c4.9-2.3,10.3-3.5,16.2-3.5
			C433,814.2,442,817.8,448.9,824.8z"/>
		<path class="st1" d="M481.4,837c3.8-7.4,9-13,15.5-17c6.6-4,13.9-5.9,21.9-5.9c6.1,0,11.9,1.3,17.5,4c5.5,2.7,10,6.2,13.2,10.6
			V784h24.1v125.6h-24.1v-13.9c-2.9,4.6-7.1,8.4-12.4,11.2c-5.3,2.8-11.5,4.2-18.5,4.2c-7.9,0-15.2-2-21.7-6.1
			c-6.6-4.1-11.7-9.8-15.5-17.2c-3.8-7.4-5.7-15.9-5.7-25.5C475.8,852.8,477.7,844.3,481.4,837z M546.4,847.8
			c-2.3-4.1-5.3-7.3-9.2-9.5c-3.8-2.2-8-3.3-12.4-3.3c-4.4,0-8.5,1.1-12.2,3.2c-3.7,2.2-6.8,5.3-9.1,9.4c-2.3,4.1-3.5,9-3.5,14.7
			c0,5.7,1.2,10.6,3.5,14.9c2.3,4.2,5.4,7.5,9.2,9.8c3.8,2.3,7.8,3.4,12.1,3.4c4.4,0,8.5-1.1,12.4-3.3c3.8-2.2,6.9-5.4,9.2-9.5
			c2.3-4.1,3.4-9.1,3.4-14.9C549.8,856.8,548.6,851.9,546.4,847.8z"/>
		<path class="st1" d="M639.5,818.9c5.3-9.2,12.4-16.4,21.6-21.6c9.1-5.1,19.3-7.7,30.6-7.7c13.2,0,24.8,3.4,34.8,10.2
			c10,6.8,16.9,16.2,20.9,28.2H720c-2.7-5.7-6.5-9.9-11.5-12.7c-4.9-2.8-10.6-4.2-17.1-4.2c-6.9,0-13,1.6-18.4,4.8
			c-5.4,3.2-9.6,7.8-12.6,13.7c-3,5.9-4.5,12.8-4.5,20.7c0,7.8,1.5,14.7,4.5,20.6c3,5.9,7.2,10.5,12.6,13.7
			c5.4,3.2,11.5,4.8,18.4,4.8c6.4,0,12.1-1.4,17.1-4.3c4.9-2.9,8.7-7.2,11.5-12.8h27.3c-4,12.1-10.9,21.5-20.8,28.3
			c-9.9,6.7-21.5,10.1-34.9,10.1c-11.3,0-21.5-2.6-30.6-7.7c-9.1-5.1-16.3-12.3-21.6-21.5c-5.3-9.2-7.9-19.6-7.9-31.2
			C631.6,838.6,634.2,828.1,639.5,818.9z"/>
		<path class="st1" d="M767.3,837c3.8-7.4,8.9-13,15.4-17c6.5-4,13.8-5.9,21.8-5.9c7,0,13.2,1.4,18.4,4.2c5.3,2.8,9.5,6.4,12.6,10.7
			v-13.4h23.9v94h-23.9v-13.7c-3.1,4.4-7.3,8.1-12.6,10.9c-5.4,2.9-11.6,4.3-18.6,4.3c-7.9,0-15.1-2-21.6-6.1
			c-6.5-4.1-11.7-9.8-15.4-17.2c-3.8-7.4-5.7-15.9-5.7-25.5C761.6,852.8,763.5,844.3,767.3,837z M832.2,847.8
			c-2.3-4.1-5.3-7.3-9.2-9.5c-3.8-2.2-8-3.3-12.4-3.3c-4.4,0-8.5,1.1-12.2,3.2c-3.7,2.2-6.8,5.3-9.1,9.4c-2.3,4.1-3.5,9-3.5,14.7
			c0,5.7,1.2,10.6,3.5,14.9c2.3,4.2,5.4,7.5,9.2,9.8c3.8,2.3,7.8,3.4,12.1,3.4c4.4,0,8.5-1.1,12.4-3.3c3.8-2.2,6.9-5.4,9.2-9.5
			c2.3-4.1,3.4-9.1,3.4-14.9C835.6,856.8,834.5,851.9,832.2,847.8z"/>
		<path class="st1" d="M919.2,818.4c5.4-2.9,11.5-4.3,18.4-4.3c8,0,15.3,2,21.8,5.9c6.5,4,11.7,9.6,15.4,16.9
			c3.8,7.3,5.7,15.8,5.7,25.4c0,9.6-1.9,18.1-5.7,25.5c-3.8,7.4-8.9,13.2-15.4,17.2c-6.5,4.1-13.8,6.1-21.8,6.1
			c-6.9,0-13-1.4-18.2-4.2s-9.5-6.4-12.8-10.7v58.2h-23.8V815.6h23.8v13.6C909.6,824.9,913.8,821.3,919.2,818.4z M952.8,847.6
			c-2.3-4.1-5.4-7.3-9.2-9.4c-3.8-2.1-7.9-3.2-12.3-3.2c-4.3,0-8.3,1.1-12.1,3.3c-3.8,2.2-6.8,5.4-9.2,9.6
			c-2.3,4.2-3.5,9.1-3.5,14.8c0,5.7,1.2,10.6,3.5,14.8c2.3,4.2,5.4,7.4,9.2,9.6c3.8,2.2,7.8,3.3,12.1,3.3c4.4,0,8.5-1.1,12.3-3.4
			c3.8-2.3,6.8-5.5,9.2-9.7c2.3-4.2,3.5-9.2,3.5-14.9C956.3,856.6,955.1,851.7,952.8,847.6z"/>
	</g>
	<g>
		<path class="st1" d="M651.2,610.5H372.8c-23.4,0-42.6-17.8-42.6-39.7V85.9c0-21.9,19.1-39.7,42.6-39.7h278.4
			c23.5,0,42.6,17.8,42.6,39.7v484.9C693.7,592.7,674.7,610.5,651.2,610.5z M372.8,68.1c-10.1-0.4-18.7,7.5-19.1,17.6
			c0,0.1,0,0.1,0,0.2v484.9c0.3,10.1,8.7,18.1,18.9,17.8c0.1,0,0.1,0,0.2,0h278.4c10.1,0.4,18.7-7.5,19.1-17.6c0-0.1,0-0.1,0-0.2
			V85.9c-0.3-10.1-8.7-18.1-18.9-17.8c-0.1,0-0.1,0-0.2,0H372.8z"/>
		<path class="st1" d="M682,142.3H342c-6.3,0.2-11.5-4.7-11.7-11V85.9c0-21.9,19.1-39.7,42.6-39.7h278.4c23.5,0,42.6,17.8,42.6,39.7
			v45.4C693.5,137.6,688.3,142.5,682,142.3z M353.7,120.4h316.5V85.9c-0.3-10.1-8.7-18.1-18.9-17.8c-0.1,0-0.1,0-0.2,0H372.8
			c-10.1-0.4-18.7,7.5-19.1,17.6c0,0.1,0,0.1,0,0.2V120.4z"/>
		<path class="st1" d="M512,573.4c-28.4,0-51.5-21.5-51.5-48c0-26.5,22.9-48,51.5-48s51.5,21.6,51.5,48
			C563.5,551.9,540.4,573.4,512,573.4z M512,499.4c-14.4,1-25.2,13.6-24.2,28c1,14.4,13.6,25.2,28,24.2c13.7-1,24.3-12.4,24.3-26.1
			C539.5,510.5,526.9,498.8,512,499.4z"/>
		<path class="st1" d="M651.2,610.5H372.8c-23.4,0-42.6-17.8-42.6-39.7v-45.4c0.2-6.3,5.5-11.2,11.7-11h130.3
			c6.3-0.2,11.5,4.7,11.7,11c1.1,15.5,14.5,27.1,30,26c14-1,25.1-12.1,26-26c0.2-6.3,5.4-11.2,11.7-11c0,0,0,0,0,0H682
			c6.3-0.2,11.5,4.7,11.7,11v45.4C693.7,592.7,674.7,610.5,651.2,610.5z M353.7,536.4v34.5c0.3,10.1,8.7,18.1,18.9,17.8
			c0.1,0,0.1,0,0.2,0h278.4c10.1,0.4,18.7-7.5,19.1-17.6c0-0.1,0-0.1,0-0.2v-34.5H562.1c-8.5,27.7-37.9,43.2-65.5,34.7
			C480,566,467,553,461.9,536.4H353.7z"/>
		<path class="st1" d="M460.9,283.6c0-28.2,22.9-51.1,51.1-51.1c0,0,0,0,0,0l0,0c28.2,0,51.1,22.9,51.1,51.1l0,0v16.3
			c0,1.1-0.9,2-2,2.1h-20.4c-1.1,0-2.1-0.9-2.1-2.1v-16.3c0-14.7-11.9-26.6-26.6-26.6c0,0,0,0,0,0l0,0c-14.7,0-26.6,11.9-26.6,26.6
			l0,0v16.3c0,1.1-0.9,2-2,2.1h-20.4c-1.1,0-2.1-0.9-2.1-2.1L460.9,283.6z M446.6,318.3v63.3c0,5.6,4.6,10.2,10.2,10.2H567
			c5.6,0,10.2-4.6,10.2-10.2v-63.3c0-5.6-4.6-10.2-10.2-10.2H456.9C451.2,308.1,446.6,312.6,446.6,318.3L446.6,318.3L446.6,318.3z"
			/>
	</g>
</g>
</svg>
