<svg xmlns="http://www.w3.org/2000/svg" xmlns:xlink="http://www.w3.org/1999/xlink" id="Layer_1" x="0" y="0" version="1.1" viewBox="0 0 1024 1024" xml:space="preserve" style="enable-background:new 0 0 1024 1024"><style type="text/css">.st0{fill:#fff}.st1{enable-background:new}</style><g><path d="M780.1,640H277.4c-28,0-50.7-22.7-50.7-50.6V86.8c0-28,22.7-50.6,50.7-50.6h502.6c28,0,50.6,22.7,50.6,50.6 v502.7C830.6,617.4,808,640,780.1,640z M277.4,61.1c-14.1,0-25.6,11.4-25.6,25.6v502.7c0,14.1,11.5,25.6,25.6,25.6h502.6 c14.1,0,25.5-11.5,25.6-25.6V86.8c0-14.1-11.5-25.5-25.6-25.6L277.4,61.1z" class="st0"/><path d="M528.7,454.2c-64.1,0.1-116.2-51.8-116.3-115.9c-0.1-64.1,51.8-116.2,115.9-116.3 c64.1-0.1,116.2,51.8,116.3,115.9c0,0,0,0,0,0C644.7,402,592.8,454,528.7,454.2z M528.7,247c-50.3,0-91.1,40.7-91.1,91 c0,50.3,40.7,91.1,91,91.1c50.3,0,91.1-40.7,91.1-91c0-0.1,0-0.1,0-0.2C619.6,287.7,578.9,247.1,528.7,247z" class="st0"/><path d="M336.2,289.6h-50c-6.9,0-12.5-5.6-12.5-12.5l0,0v-81.7c0-6.9,5.6-12.5,12.5-12.6h50c6.9,0,12.6,5.6,12.6,12.6 l0,0v81.7C348.7,284,343.1,289.6,336.2,289.6z M298.7,264.5h24.6v-56.6h-24.6V264.5z" class="st0"/><path d="M413.5,682.1h-69.3c-6.9,0-12.6-5.6-12.6-12.6l0,0v-41c0-6.9,5.6-12.5,12.6-12.5h69.4 c6.9,0,12.5,5.6,12.6,12.5v40.8c0.1,6.9-5.4,12.6-12.4,12.8C413.8,682.1,413.7,682.1,413.5,682.1z M356.7,657H401v-15.8h-44.3V657z" class="st0"/><path d="M713.6,682.1h-69.7c-6.9,0-12.6-5.6-12.6-12.6l0,0v-41c0-6.9,5.6-12.5,12.6-12.5h69.7 c6.9,0,12.5,5.6,12.5,12.5l0,0v40.8c0.1,6.9-5.4,12.6-12.4,12.8C713.7,682.1,713.7,682.1,713.6,682.1z M656.7,657H701v-15.8h-44.3 V657z" class="st0"/><path d="M528.7,277.3c-6.9,0-12.5-5.6-12.6-12.5v-29.9c0.4-6.9,6.4-12.2,13.3-11.7c6.3,0.4,11.4,5.4,11.7,11.7v29.9 C541.2,271.7,535.6,277.3,528.7,277.3L528.7,277.3z" class="st0"/><path d="M528.7,453.7c-6.9,0-12.5-5.6-12.6-12.5v-29.9c0.4-6.9,6.4-12.2,13.3-11.7c6.3,0.4,11.4,5.4,11.7,11.7v30 C541.2,448.2,535.6,453.7,528.7,453.7z" class="st0"/><path d="M580.6,298.8c-6.9,0-12.5-5.7-12.5-12.6c0-3.3,1.3-6.5,3.7-8.8l21.1-21.1c4.6-5.2,12.5-5.7,17.7-1 c5.2,4.6,5.7,12.5,1,17.7c-0.3,0.4-0.7,0.7-1,1l-21.1,21.1C587.2,297.5,584,298.8,580.6,298.8z" class="st0"/><path d="M455.8,423.5c-6.9,0-12.5-5.7-12.5-12.6c0-3.3,1.3-6.5,3.7-8.8l21.1-21.1c4.6-5.2,12.5-5.7,17.7-1 c5.2,4.6,5.7,12.5,1,17.7c-0.3,0.4-0.7,0.7-1,1l-21.1,21.1C462.3,422.2,459.1,423.5,455.8,423.5z" class="st0"/><path d="M631.9,350.6H602c-6.9-0.4-12.2-6.4-11.7-13.3c0.4-6.3,5.4-11.3,11.7-11.7h29.9c6.9,0.4,12.2,6.4,11.7,13.3 C643.2,345.2,638.2,350.2,631.9,350.6z" class="st0"/><path d="M455.5,350.6h-29.8c-6.9,0.4-12.9-4.8-13.3-11.7c-0.4-6.9,4.8-12.9,11.7-13.3c0.5,0,1.1,0,1.6,0h29.8 c6.9-0.4,12.9,4.8,13.3,11.7c0.4,6.9-4.8,12.9-11.7,13.3C456.5,350.6,456,350.6,455.5,350.6z" class="st0"/><path d="M601.6,423.5c-3.3,0-6.5-1.3-8.9-3.7l-21.1-21.1c-4.6-5.2-4.1-13.1,1-17.7c4.8-4.2,11.9-4.2,16.7,0l21.1,21.1 c4.9,4.9,4.9,12.9,0,17.8C608.1,422.2,604.9,423.5,601.6,423.5z" class="st0"/><path d="M476.9,298.8c-3.3,0-6.5-1.3-8.9-3.6L446.9,274c-4.6-5.2-4.1-13.1,1-17.7c4.8-4.2,11.9-4.2,16.7,0l21.1,21.1 c4.9,4.9,4.9,12.9,0,17.8C483.4,297.5,480.2,298.8,476.9,298.8z" class="st0"/><path d="M336.2,496.9h-50c-6.9,0-12.5-5.6-12.5-12.6v-81.7c0-6.9,5.6-12.5,12.5-12.6h50c6.9,0,12.6,5.6,12.6,12.6l0,0 v81.7C348.7,491.2,343.1,496.9,336.2,496.9C336.2,496.9,336.2,496.9,336.2,496.9z M298.7,471.7h24.6v-56.5h-24.6V471.7z" class="st0"/><path d="M747.6,569.4H309.8c-6.9,0-12.5-5.6-12.6-12.5v-72.6c0-6.9,5.6-12.6,12.6-12.6c0,0,0,0,0,0h13.7v-56.5h-13.7 c-6.9,0-12.6-5.6-12.6-12.6l0,0V277.1c0-6.9,5.6-12.6,12.6-12.6c0,0,0,0,0,0h13.7v-56.6h-13.7c-6.9,0-12.5-5.6-12.6-12.5v-76.2 c0-6.9,5.6-12.5,12.6-12.5h437.6c6.9,0,12.5,5.6,12.6,12.5v437.7C759.9,563.8,754.4,569.3,747.6,569.4z M322.4,544.3H735V131.8 H322.4v51.1h13.7c6.9,0,12.6,5.6,12.6,12.6l0,0v81.7c0,6.9-5.6,12.5-12.6,12.5h-13.7v100.5h13.7c6.9,0,12.6,5.6,12.6,12.6l0,0v81.7 c0,6.9-5.6,12.6-12.6,12.6c0,0,0,0,0,0h-13.7V544.3z" class="st0"/><g class="st1"><path d="M206.7,957.3c-7.2-3.1-12.8-7.5-17-13.2c-4.2-5.7-6.3-12.5-6.4-20.4h27.5c0.4,5.3,2.2,9.4,5.6,12.5 c3.4,3.1,8,4.6,13.9,4.6c6,0,10.7-1.4,14.1-4.3c3.4-2.9,5.1-6.6,5.1-11.3c0-3.8-1.2-6.9-3.5-9.4c-2.3-2.4-5.2-4.4-8.7-5.8 c-3.5-1.4-8.3-3-14.4-4.7c-8.3-2.4-15.1-4.9-20.3-7.2c-5.2-2.4-9.7-6-13.4-10.8c-3.7-4.8-5.6-11.3-5.6-19.4 c0-7.6,1.9-14.2,5.7-19.8c3.8-5.6,9.1-9.9,16-12.9c6.9-3,14.7-4.5,23.5-4.5c13.2,0,23.9,3.2,32.2,9.6s12.8,15.4,13.7,26.9h-28.3 c-0.2-4.4-2.1-8-5.6-10.9c-3.5-2.9-8.1-4.3-13.9-4.3c-5,0-9,1.3-12,3.9c-3,2.6-4.5,6.3-4.5,11.2c0,3.4,1.1,6.3,3.4,8.5 c2.3,2.3,5.1,4.1,8.4,5.5c3.4,1.4,8.1,3,14.2,4.9c8.3,2.4,15.1,4.9,20.4,7.3c5.3,2.4,9.8,6.1,13.6,11c3.8,4.9,5.7,11.3,5.7,19.3 c0,6.9-1.8,13.2-5.3,19.1c-3.5,5.9-8.7,10.6-15.6,14c-6.9,3.5-15,5.2-24.4,5.2C221.8,961.9,213.8,960.4,206.7,957.3z" class="st0"/></g><g class="st1"><path d="M296.8,882.1c4.1-8,9.7-14.1,16.7-18.4c7-4.3,14.9-6.4,23.6-6.4c7.6,0,14.2,1.5,19.9,4.6 c5.7,3.1,10.2,6.9,13.7,11.6v-14.5h25.9v101.7h-25.9v-14.9c-3.3,4.8-7.9,8.7-13.7,11.8c-5.8,3.1-12.5,4.7-20.1,4.7 c-8.6,0-16.4-2.2-23.4-6.6c-7-4.4-12.6-10.6-16.7-18.6c-4.1-8-6.1-17.2-6.1-27.6C290.6,899.1,292.7,890,296.8,882.1z M367,893.7 c-2.4-4.5-5.8-7.9-9.9-10.3c-4.2-2.4-8.6-3.6-13.4-3.6c-4.8,0-9.2,1.2-13.2,3.5c-4,2.3-7.3,5.7-9.8,10.2 c-2.5,4.5-3.8,9.8-3.8,15.9c0,6.1,1.3,11.5,3.8,16.1c2.5,4.6,5.8,8.1,9.9,10.6c4.1,2.4,8.5,3.7,13.1,3.7c4.8,0,9.2-1.2,13.4-3.6 c4.2-2.4,7.5-5.8,9.9-10.3c2.4-4.5,3.7-9.8,3.7-16.1S369.4,898.2,367,893.7z" class="st0"/></g><g class="st1"><path d="M450.8,936.9l25.7-78h27.3l-37.6,101.7H435l-37.4-101.7h27.5L450.8,936.9z" class="st0"/><path d="M520.1,842.5c-3-2.9-4.5-6.5-4.5-10.7c0-4.3,1.5-7.9,4.5-10.7c3-2.9,6.8-4.3,11.3-4.3c4.5,0,8.3,1.4,11.3,4.3 c3,2.9,4.5,6.5,4.5,10.7c0,4.3-1.5,7.9-4.5,10.7c-3,2.9-6.8,4.3-11.3,4.3C526.8,846.8,523.1,845.4,520.1,842.5z M544,858.9v101.7 h-25.7V858.9H544z" class="st0"/><path d="M655.1,868.9c7.5,7.6,11.2,18.3,11.2,32v59.6h-25.7v-56.2c0-8.1-2-14.3-6.1-18.6c-4-4.3-9.5-6.5-16.5-6.5 c-7.1,0-12.7,2.2-16.8,6.5c-4.1,4.3-6.1,10.6-6.1,18.6v56.2h-25.7V858.9h25.7v12.7c3.4-4.4,7.8-7.9,13.1-10.4 c5.3-2.5,11.2-3.8,17.5-3.8C637.8,857.5,647.6,861.3,655.1,868.9z" class="st0"/><path d="M750.5,861.8c5.7,3,10.3,6.9,13.6,11.7v-14.5h25.9v102.4c0,9.4-1.9,17.8-5.7,25.2 c-3.8,7.4-9.5,13.3-17.1,17.6c-7.6,4.3-16.8,6.5-27.5,6.5c-14.4,0-26.3-3.4-35.5-10.1c-9.2-6.7-14.5-15.9-15.7-27.5H714 c1.3,4.6,4.2,8.3,8.7,11.1c4.5,2.8,9.9,4.1,16.2,4.1c7.5,0,13.5-2.2,18.2-6.7c4.6-4.5,7-11.2,7-20.3v-15.8 c-3.3,4.8-7.9,8.7-13.7,11.9c-5.8,3.2-12.4,4.8-19.9,4.8c-8.6,0-16.4-2.2-23.5-6.6c-7.1-4.4-12.7-10.6-16.8-18.6 c-4.1-8-6.1-17.2-6.1-27.6c0-10.3,2-19.4,6.1-27.3c4.1-8,9.7-14.1,16.7-18.4c7-4.3,14.9-6.4,23.6-6.4 C738.1,857.3,744.7,858.8,750.5,861.8z M760.4,893.7c-2.4-4.5-5.8-7.9-9.9-10.3c-4.2-2.4-8.6-3.6-13.4-3.6s-9.2,1.2-13.2,3.5 c-4,2.3-7.3,5.7-9.8,10.2c-2.5,4.5-3.8,9.8-3.8,15.9c0,6.1,1.3,11.5,3.8,16.1c2.5,4.6,5.8,8.1,9.9,10.6c4.1,2.4,8.5,3.7,13.1,3.7 c4.8,0,9.2-1.2,13.4-3.6c4.2-2.4,7.5-5.8,9.9-10.3c2.4-4.5,3.7-9.8,3.7-16.1S762.8,898.2,760.4,893.7z" class="st0"/><path d="M831.6,957.8c-6.6-3-11.8-7.1-15.7-12.2c-3.9-5.1-6-10.8-6.3-17.1h25.9c0.5,3.9,2.4,7.2,5.8,9.7 c3.4,2.6,7.6,3.9,12.6,3.9c4.9,0,8.7-1,11.5-2.9c2.8-2,4.1-4.5,4.1-7.5c0-3.3-1.7-5.8-5-7.4c-3.4-1.7-8.7-3.5-16.1-5.4 c-7.6-1.8-13.8-3.7-18.6-5.7c-4.8-2-9-5-12.5-9c-3.5-4-5.2-9.5-5.2-16.3c0-5.6,1.6-10.8,4.9-15.4c3.2-4.6,7.9-8.3,13.9-11 c6.1-2.7,13.2-4,21.4-4c12.1,0,21.8,3,29,9.1c7.2,6.1,11.2,14.2,11.9,24.5h-24.6c-0.4-4-2-7.2-5-9.6c-3-2.4-7-3.6-12-3.6 c-4.7,0-8.2,0.9-10.7,2.6c-2.5,1.7-3.8,4.1-3.8,7.2c0,3.4,1.7,6,5.1,7.8c3.4,1.8,8.7,3.6,16,5.4c7.3,1.8,13.4,3.7,18.2,5.7 c4.8,2,8.9,5,12.4,9.1c3.5,4.1,5.3,9.5,5.4,16.2c0,5.9-1.6,11.1-4.9,15.8c-3.2,4.7-7.9,8.3-13.9,10.9c-6.1,2.6-13.1,3.9-21.2,3.9 C845.7,962.3,838.2,960.8,831.6,957.8z" class="st0"/></g></g></svg>