<?xml version="1.0" encoding="utf-8"?>
<!-- Generator: Adobe Illustrator 25.1.0, SVG Export Plug-In . SVG Version: 6.00 Build 0)  -->
<svg version="1.1" id="Layer_1" xmlns="http://www.w3.org/2000/svg" xmlns:xlink="http://www.w3.org/1999/xlink" x="0px" y="0px"
	 viewBox="0 0 1024 1024" style="enable-background:new 0 0 1024 1024;" xml:space="preserve">
<style type="text/css">
	.st0{fill:#FFFFFF;}
	.st1{enable-background:new    ;}
</style>
<g>
	<path class="st0" d="M753.1,615.3H208.4c-22.9,0-41.4-18.5-41.4-41.4V289c0-22.9,18.6-41.4,41.4-41.4h544.7
		c22.9,0,41.4,18.6,41.4,41.4v284.9C794.5,596.8,776,615.3,753.1,615.3z M208.4,272.4c-9.1,0-16.5,7.4-16.5,16.6v284.9
		c0,9.1,7.4,16.5,16.5,16.5l0,0h544.7c9.1,0,16.6-7.4,16.6-16.5V289c0-9.2-7.4-16.6-16.6-16.6l0,0H208.4z"/>
	<path class="st0" d="M830.1,414.4h-48c-6.8,0-12.4-5.5-12.4-12.4l0,0V288.9c0-9.2-7.4-16.6-16.6-16.6l0,0H256.4
		c-6.9,0-12.4-5.6-12.4-12.4V88.1c0-22.9,18.5-41.4,41.4-41.4h544.7c22.9,0,41.4,18.5,41.4,41.4V373
		C871.5,395.9,853,414.4,830.1,414.4z M794.5,389.6h35.6c9.2,0,16.6-7.4,16.6-16.6l0,0V88.1c0-9.2-7.4-16.6-16.6-16.6l0,0H285.4
		c-9.1,0-16.5,7.4-16.5,16.6v159.4h484.2c22.9,0,41.4,18.6,41.4,41.4V389.6z"/>
	<rect x="256.4" y="117.4" class="st0" width="602.7" height="66.6"/>
	<path class="st0" d="M520.1,378.9H179.4c-6.9,0.4-12.8-4.8-13.2-11.6c-0.4-6.9,4.8-12.8,11.6-13.2c0.5,0,1,0,1.6,0h340.7
		c6.9-0.4,12.8,4.8,13.2,11.6c0.4,6.9-4.8,12.8-11.6,13.2C521.2,379,520.6,379,520.1,378.9z"/>
	<path class="st0" d="M632.6,378.9h-55.1c-6.9,0.4-12.8-4.8-13.2-11.6c-0.4-6.9,4.8-12.8,11.6-13.2c0.5,0,1,0,1.6,0h55.1
		c6.9-0.4,12.8,4.8,13.2,11.6c0.4,6.9-4.8,12.8-11.6,13.2C633.7,379,633.2,379,632.6,378.9z"/>
	<path class="st0" d="M782.1,378.9h-97.8c-6.9-0.4-12.1-6.3-11.6-13.2c0.4-6.3,5.4-11.2,11.6-11.6h97.8c6.9-0.4,12.8,4.8,13.2,11.6
		c0.4,6.9-4.8,12.8-11.6,13.2C783.1,379,782.6,379,782.1,378.9z"/>
	<path class="st0" d="M362.7,553.4c-29.6,0-53.7-24-53.7-53.7s24-53.7,53.7-53.7s53.7,24,53.7,53.7S392.3,553.4,362.7,553.4
		L362.7,553.4z M362.7,471.3c-15.8,0-28.6,12.8-28.6,28.6s12.8,28.6,28.6,28.6c15.8,0,28.6-12.8,28.6-28.6l0,0
		C391.3,484.1,378.5,471.3,362.7,471.3z"/>
	<path class="st0" d="M289.4,553.4c-29.6,0.2-53.8-23.7-53.9-53.4c-0.2-29.6,23.7-53.8,53.4-53.9c20.4-0.1,39.1,11.4,48.3,29.7
		c1.8,3.5,1.8,7.7,0,11.3c-4.1,8.1-4.1,17.7,0,25.9c1.8,3.5,1.8,7.7,0,11.3C328,542.1,309.6,553.4,289.4,553.4z M289.4,471.3
		c-15.8,0-28.6,12.8-28.6,28.6s12.8,28.6,28.6,28.6c8.9,0,17.3-4.1,22.7-11.2c-3.9-11.3-3.9-23.6,0-35
		C306.7,475.3,298.3,471.2,289.4,471.3z"/>
	<g class="st1">
		<path class="st0" d="M250.6,838.7v20.4h-33.6v105.6h-25.3V859.1h-33.6v-20.4H250.6z"/>
	</g>
	<g class="st1">
		<path class="st0" d="M297.1,867.8c5.2-3,11.2-4.5,18-4.5v26.5h-6.7c-7.9,0-13.9,1.9-18,5.6c-4,3.7-6,10.2-6,19.5v49.8h-25.3v-100
			h25.3v15.5C287.6,874.9,291.8,870.8,297.1,867.8z"/>
	</g>
	<g class="st1">
		<path class="st0" d="M326.5,887.4c4-7.8,9.5-13.8,16.4-18c6.9-4.2,14.6-6.3,23.2-6.3c7.5,0,14,1.5,19.6,4.5
			c5.6,3,10.1,6.8,13.4,11.4v-14.3h25.4v100h-25.4v-14.6c-3.2,4.7-7.7,8.6-13.4,11.6c-5.7,3.1-12.3,4.6-19.8,4.6
			c-8.4,0-16.1-2.2-23-6.5c-6.9-4.3-12.4-10.4-16.4-18.3c-4-7.9-6-16.9-6-27.2C320.5,904.2,322.5,895.3,326.5,887.4z M395.6,898.9
			c-2.4-4.4-5.7-7.8-9.7-10.1c-4.1-2.3-8.5-3.5-13.2-3.5c-4.7,0-9,1.1-13,3.4c-4,2.3-7.2,5.6-9.7,10c-2.5,4.4-3.7,9.6-3.7,15.6
			c0,6,1.2,11.3,3.7,15.8c2.5,4.5,5.7,8,9.7,10.4c4,2.4,8.3,3.6,12.9,3.6c4.7,0,9.1-1.2,13.2-3.5c4.1-2.3,7.3-5.7,9.7-10.1
			c2.4-4.4,3.6-9.7,3.6-15.8C399.2,908.5,398,903.3,395.6,898.9z"/>
		<path class="st0" d="M533.6,874.5c7.3,7.5,11,18,11,31.5v58.7h-25.3v-55.2c0-7.9-2-14-6-18.3c-4-4.3-9.4-6.4-16.2-6.4
			c-7,0-12.5,2.1-16.5,6.4c-4,4.3-6,10.4-6,18.3v55.2h-25.3v-100h25.3v12.5c3.4-4.3,7.7-7.7,12.9-10.2c5.2-2.5,11-3.7,17.2-3.7
			C516.7,863.3,526.3,867,533.6,874.5z"/>
	</g>
	<g class="st1">
		<path class="st0" d="M578.9,961.9c-6.5-2.9-11.6-6.9-15.4-12c-3.8-5.1-5.9-10.6-6.2-16.8h25.4c0.5,3.9,2.4,7,5.7,9.6
			c3.3,2.5,7.4,3.8,12.4,3.8c4.8,0,8.6-1,11.3-2.9c2.7-1.9,4.1-4.4,4.1-7.4c0-3.2-1.7-5.7-5-7.3c-3.3-1.6-8.6-3.4-15.8-5.3
			c-7.5-1.8-13.6-3.7-18.3-5.6c-4.8-1.9-8.8-4.9-12.3-8.8c-3.4-4-5.1-9.3-5.1-16.1c0-5.5,1.6-10.6,4.8-15.2
			c3.2-4.6,7.8-8.2,13.7-10.8c6-2.6,13-4,21-4c11.9,0,21.4,3,28.5,8.9c7.1,6,11,14,11.7,24.1h-24.2c-0.4-4-2-7.1-5-9.5
			c-2.9-2.3-6.9-3.5-11.8-3.5c-4.6,0-8.1,0.8-10.6,2.5c-2.5,1.7-3.7,4-3.7,7c0,3.4,1.7,5.9,5.1,7.7c3.4,1.7,8.6,3.5,15.7,5.3
			c7.2,1.8,13.2,3.7,17.9,5.6c4.7,1.9,8.8,4.9,12.2,8.9c3.4,4,5.2,9.4,5.3,16c0,5.8-1.6,10.9-4.8,15.5c-3.2,4.6-7.8,8.2-13.7,10.7
			c-6,2.6-12.9,3.9-20.8,3.9C592.7,966.3,585.4,964.8,578.9,961.9z"/>
		<path class="st0" d="M705.9,885.5h-17.5v79.2h-25.6v-79.2h-11.4v-20.8h11.4v-5.1c0-12.3,3.5-21.3,10.5-27.1
			c7-5.8,17.5-8.5,31.6-8.1v21.3c-6.1-0.1-10.4,0.9-12.8,3.1c-2.4,2.2-3.6,6.1-3.6,11.7v4.2h17.5V885.5z"/>
	</g>
	<g class="st1">
		<path class="st0" d="M803.7,922.3h-73.1c0.6,7.2,3.1,12.9,7.6,17c4.5,4.1,9.9,6.1,16.4,6.1c9.4,0,16.1-4,20-12.1h27.3
			c-2.9,9.6-8.4,17.5-16.6,23.7c-8.2,6.2-18.2,9.3-30.1,9.3c-9.6,0-18.3-2.1-25.9-6.4c-7.6-4.3-13.6-10.3-17.9-18.1
			c-4.3-7.8-6.4-16.8-6.4-27.1c0-10.3,2.1-19.4,6.3-27.2c4.2-7.8,10.1-13.8,17.7-18c7.6-4.2,16.3-6.3,26.2-6.3c9.5,0,18,2,25.5,6.1
			c7.5,4.1,13.4,9.9,17.5,17.4c4.2,7.5,6.2,16.2,6.2,25.9C804.4,916.1,804.2,919.4,803.7,922.3z M778.3,905.3
			c-0.1-6.5-2.5-11.7-7-15.6c-4.6-3.9-10.2-5.9-16.8-5.9c-6.3,0-11.5,1.9-15.8,5.7c-4.3,3.8-6.9,9.1-7.8,15.8H778.3z"/>
		<path class="st0" d="M860.8,867.8c5.2-3,11.2-4.5,18-4.5v26.5h-6.7c-7.9,0-13.9,1.9-18,5.6c-4,3.7-6,10.2-6,19.5v49.8h-25.3v-100
			h25.3v15.5C851.3,874.9,855.6,870.8,860.8,867.8z"/>
	</g>
</g>
</svg>
