<?xml version="1.0" encoding="utf-8"?>
<!-- Generator: Adobe Illustrator 25.1.0, SVG Export Plug-In . SVG Version: 6.00 Build 0)  -->
<svg version="1.1" id="Layer_1" xmlns="http://www.w3.org/2000/svg" xmlns:xlink="http://www.w3.org/1999/xlink" x="0px" y="0px"
	 viewBox="0 0 1024 1024" style="enable-background:new 0 0 1024 1024;" xml:space="preserve">
<style type="text/css">
	.st0{fill:#FFFFFF;}
	.st1{enable-background:new    ;}
</style>
<g>
	<path class="st0" d="M879.8,411.1h-138c-51.2-1.3-91.7-43.7-90.5-94.9c1.2-49.5,41-89.3,90.5-90.5h138c7.8,0,14.2,6.4,14.2,14.2
		v157C894,404.7,887.6,411.1,879.8,411.1L879.8,411.1z M741.8,254.1c-35.5-0.1-64.2,28.7-64.3,64.1c-0.1,35.5,28.7,64.2,64.1,64.3
		c0.1,0,0.2,0,0.2,0h123.7V254.1H741.8z"/>
	<path class="st0" d="M755.9,582.2H283.7c-52.5-0.1-95.1-42.7-95.2-95.2V149.7c0.1-52.6,42.6-95.1,95.2-95.2h472.1
		c52.6,0.1,95.2,42.6,95.2,95.2v90.2c0,7.8-6.3,14.2-14.1,14.2c0,0,0,0-0.1,0h-95c-35.5-0.1-64.2,28.7-64.3,64.1
		c-0.1,35.5,28.7,64.2,64.1,64.3c0.1,0,0.2,0,0.2,0h95.1c7.8,0,14.2,6.4,14.2,14.2V487C851.1,539.5,808.4,582.2,755.9,582.2z
		 M283.7,83C246.9,83,217,113,217,149.8V487c0,36.8,29.8,66.8,66.8,66.8h472.1c36.9,0,66.8-29.9,66.8-66.8v-76h-80.9
		c-51.2-1.3-91.7-43.7-90.5-94.9c1.2-49.5,41-89.3,90.5-90.5h80.9v-76c0-36.9-29.9-66.8-66.8-66.8L283.7,83z"/>
	<path class="st0" d="M836.9,158.9H202.8c-7.8-0.5-13.9-7.3-13.4-15.1c0.5-7.2,6.2-13,13.4-13.4h634.1c7.8,0.5,13.9,7.3,13.4,15.1
		C849.9,152.7,844.1,158.5,836.9,158.9z"/>
	<path class="st0" d="M836.9,506.3H202.8c-7.8-0.5-13.9-7.3-13.4-15.1c0.5-7.2,6.2-13,13.4-13.4h634.1c7.8,0.5,13.9,7.3,13.4,15.1
		C849.9,500.1,844.1,505.8,836.9,506.3z"/>
	<path class="st0" d="M757.2,369.6c-28.3,0-51.3-23-51.3-51.3c0-28.3,23-51.3,51.3-51.3c28.3,0,51.3,23,51.3,51.3v0.1
		C808.4,346.6,785.4,369.6,757.2,369.6z M757.2,295.6c-12.6,0-22.8,10.2-22.9,22.8c0,12.6,10.2,22.8,22.8,22.9
		c12.6,0,22.8-10.2,22.9-22.8c0,0,0,0,0-0.1C779.9,305.8,769.7,295.6,757.2,295.6z"/>
	<g class="st1">
		<path class="st0" d="M258.5,809.2l-37.9,135.6h-32.1l-25.5-96.6l-26.6,96.6l-31.9,0.2L68.1,809.2h29.1l23.9,105.3l27.6-105.3H179
			l26,104.7l24.1-104.7H258.5z"/>
	</g>
	<g class="st1">
		<path class="st0" d="M272.5,819.8c-3.2-3-4.8-6.8-4.8-11.4c0-4.5,1.6-8.3,4.8-11.4c3.2-3,7.2-4.6,11.9-4.6c4.8,0,8.8,1.5,11.9,4.6
			c3.2,3,4.8,6.8,4.8,11.4c0,4.5-1.6,8.3-4.8,11.4c-3.2,3-7.2,4.6-11.9,4.6C279.7,824.3,275.7,822.8,272.5,819.8z M297.9,837.2
			v107.6h-27.2V837.2H297.9z"/>
	</g>
	<g class="st1">
		<path class="st0" d="M344.5,859.5v52.1c0,3.6,0.9,6.3,2.6,7.9c1.7,1.6,4.7,2.4,8.8,2.4h12.6v22.9h-17.1
			c-22.9,0-34.4-11.1-34.4-33.4v-51.9h-12.8v-22.3h12.8v-26.6h27.4v26.6h24.1v22.3H344.5z"/>
		<path class="st0" d="M470.6,840.9c6.3,3.6,11.3,8.8,14.9,15.7c3.6,6.9,5.3,15.3,5.3,25v63.1h-27.2v-59.4c0-8.5-2.1-15.1-6.4-19.7
			c-4.3-4.6-10.1-6.9-17.5-6.9c-7.5,0-13.4,2.3-17.8,6.9c-4.3,4.6-6.5,11.2-6.5,19.7v59.4h-27.2V801h27.2v49.5
			c3.5-4.7,8.2-8.3,14-11c5.8-2.7,12.3-4,19.4-4C457,835.6,464.3,837.4,470.6,840.9z"/>
		<path class="st0" d="M516.2,861.6c4.3-8.4,10.3-14.9,17.8-19.4c7.5-4.5,15.9-6.8,25.1-6.8c7,0,13.7,1.5,20,4.6
			c6.3,3,11.4,7.1,15.2,12.1V801h27.6v143.8h-27.6v-15.9c-3.4,5.3-8.1,9.6-14.2,12.8c-6.1,3.2-13.1,4.9-21.2,4.9
			c-9.1,0-17.4-2.3-24.9-7c-7.5-4.7-13.4-11.2-17.8-19.7c-4.3-8.5-6.5-18.2-6.5-29.2C509.7,879.7,511.8,870.1,516.2,861.6z
			 M590.5,874c-2.6-4.7-6.1-8.4-10.5-10.9c-4.4-2.5-9.1-3.8-14.2-3.8c-5.1,0-9.7,1.2-14,3.7c-4.3,2.5-7.7,6.1-10.4,10.8
			c-2.7,4.7-4,10.3-4,16.8c0,6.5,1.3,12.1,4,17c2.7,4.9,6.1,8.6,10.5,11.2c4.3,2.6,9,3.9,13.9,3.9c5.1,0,9.8-1.3,14.2-3.8
			c4.4-2.5,7.9-6.1,10.5-10.9c2.6-4.7,3.9-10.4,3.9-17C594.4,884.4,593.1,878.7,590.5,874z"/>
	</g>
	<g class="st1">
		<path class="st0" d="M678.7,840.5c5.6-3.2,12.1-4.9,19.3-4.9v28.6h-7.2c-8.5,0-15,2-19.3,6c-4.3,4-6.5,11-6.5,21v53.6h-27.2V837.2
			H665v16.7C668.5,848.2,673.1,843.7,678.7,840.5z"/>
		<path class="st0" d="M714.1,861.6c4.3-8.4,10.2-14.9,17.7-19.4c7.4-4.5,15.8-6.8,25-6.8c8,0,15.1,1.6,21.1,4.9
			c6,3.2,10.8,7.3,14.5,12.2v-15.3h27.4v107.6h-27.4V929c-3.5,5.1-8.3,9.2-14.5,12.5c-6.2,3.3-13.2,5-21.3,5c-9.1,0-17.3-2.3-24.8-7
			c-7.4-4.7-13.3-11.2-17.7-19.7c-4.3-8.5-6.5-18.2-6.5-29.2C707.5,879.7,709.7,870.1,714.1,861.6z M788.4,874
			c-2.6-4.7-6.1-8.4-10.5-10.9c-4.4-2.5-9.1-3.8-14.2-3.8c-5.1,0-9.7,1.2-14,3.7c-4.3,2.5-7.7,6.1-10.4,10.8c-2.7,4.7-4,10.3-4,16.8
			c0,6.5,1.3,12.1,4,17c2.7,4.9,6.1,8.6,10.5,11.2c4.3,2.6,9,3.9,13.9,3.9c5.1,0,9.8-1.3,14.2-3.8c4.4-2.5,7.9-6.1,10.5-10.9
			c2.6-4.7,3.9-10.4,3.9-17C792.3,884.4,791,878.7,788.4,874z"/>
	</g>
	<g class="st1">
		<path class="st0" d="M979.8,837.2l-31.5,107.6H919l-19.6-75.2l-19.6,75.2h-29.5l-31.7-107.6h27.6l19,82l20.6-82h28.8l20.2,81.8
			l19-81.8H979.8z"/>
	</g>
</g>
</svg>
