<svg xmlns="http://www.w3.org/2000/svg" xmlns:xlink="http://www.w3.org/1999/xlink" id="Layer_2" x="0" y="0" version="1.1" viewBox="0 0 334.6 83.3" xml:space="preserve" style="enable-background:new 0 0 334.6 83.3"><style type="text/css">.st0{fill:#fff}.st1{fill:none;stroke:#fff;stroke-width:5;stroke-miterlimit:10}</style><path d="M23.3,48.4h-6c-1.8,0-3.3,1.5-3.3,3.3v14.2c0,1.8,1.5,3.3,3.3,3.3h6c1.8,0,3.3-1.5,3.3-3.3V51.7	C26.6,49.8,25.2,48.4,23.3,48.4z" class="st0"/><path d="M44.9,40h-6c-1.8,0-3.3,1.5-3.3,3.3v22.5c0,1.8,1.5,3.3,3.3,3.3h6c1.8,0,3.3-1.5,3.3-3.3V43.3	C48.2,41.5,46.7,40,44.9,40z" class="st0"/><path d="M66.4,31.1h-6c-1.8,0-3.3,1.5-3.3,3.3v31.5c0,1.8,1.5,3.3,3.3,3.3h6c1.8,0,3.3-1.5,3.3-3.3V34.4	C69.7,32.5,68.2,31.1,66.4,31.1z" class="st0"/><path d="M87.9,22.4h-6c-1.8,0-3.3,1.5-3.3,3.3v40.1c0,1.8,1.5,3.3,3.3,3.3h6c1.8,0,3.3-1.5,3.3-3.3V25.7	C91.2,23.9,89.7,22.4,87.9,22.4z" class="st0"/><path d="M140.7,58.9l10.1,10.3L161,58.8C155.9,54.2,145.9,54.3,140.7,58.9z" class="st0"/><path d="M167.3,52.5l7.9-8.1c-12.3-11-36.3-10.8-48.5,0.1l7.9,8C143.1,45.7,158.6,45.6,167.3,52.5z" class="st0"/><path d="M180.3,39.2l8.8-9c-19.3-17.4-57.1-17-76.5,0.2l8.8,9C137.1,26.8,165.3,26.5,180.3,39.2z" class="st0"/><path d="M301,68.1h-76.1c-6.5,0-11.7-5.3-11.7-11.7V31.9c0-6.5,5.3-11.7,11.7-11.7H301c6.5,0,11.7,5.3,11.7,11.7v24.5	C312.7,62.9,307.5,68.1,301,68.1z" class="st1"/><path d="M318.7,51.3h2.3c1,0,1.9-0.8,1.9-1.9V38.1c0-1-0.8-1.9-1.9-1.9h-2.3c-1,0-1.9,0.8-1.9,1.9v11.3	C316.8,50.4,317.6,51.3,318.7,51.3z" class="st0"/><path d="M225.2,59.1h57.4c1.9,0,3.4-1.5,3.4-3.4v-24c0-1.9-1.5-3.4-3.4-3.4h-57.4c-1.9,0-3.4,1.5-3.4,3.4v24	C221.8,57.6,223.3,59.1,225.2,59.1z" class="st0"/></svg>